<?xml version="1.0" encoding="utf-8"?>
<!-- Generator: Adobe Illustrator 21.0.0, SVG Export Plug-In . SVG Version: 6.00 Build 0)  -->
<svg version="1.1" id="Layer_1" xmlns="http://www.w3.org/2000/svg" xmlns:xlink="http://www.w3.org/1999/xlink" x="0px" y="0px"
	 width="1400px" height="980px" viewBox="0 0 1400 980" style="enable-background:new 0 0 1400 980;" xml:space="preserve">
<style type="text/css">
	.st0{fill-rule:evenodd;clip-rule:evenodd;fill:#70C4BF;}
	.st1{fill-rule:evenodd;clip-rule:evenodd;fill:#55BCB3;}
	.st2{fill-rule:evenodd;clip-rule:evenodd;fill:#B1D9BD;}
	.st3{fill-rule:evenodd;clip-rule:evenodd;fill:#4AB35E;}
	.st4{fill-rule:evenodd;clip-rule:evenodd;fill:#77C07B;}
	.st5{fill-rule:evenodd;clip-rule:evenodd;fill:#3CB05B;}
	.st6{fill-rule:evenodd;clip-rule:evenodd;fill:#D9ECDD;}
	.st7{fill-rule:evenodd;clip-rule:evenodd;fill:#FFFFFF;}
	.st8{fill-rule:evenodd;clip-rule:evenodd;fill:#EB664E;}
	.st9{fill-rule:evenodd;clip-rule:evenodd;fill:#C25646;}
	.st10{fill-rule:evenodd;clip-rule:evenodd;fill:#F8D2D3;}
	.st11{fill-rule:evenodd;clip-rule:evenodd;fill:#E95E62;}
	.st12{fill-rule:evenodd;clip-rule:evenodd;fill:#EC797D;}
	.st13{fill-rule:evenodd;clip-rule:evenodd;fill:#E68F90;}
	.st14{fill-rule:evenodd;clip-rule:evenodd;fill:#DD8485;}
	.st15{fill-rule:evenodd;clip-rule:evenodd;fill:#E95554;}
	.st16{fill-rule:evenodd;clip-rule:evenodd;fill:#D95E61;}
	.st17{fill-rule:evenodd;clip-rule:evenodd;fill:#FADEE0;}
	.st18{fill-rule:evenodd;clip-rule:evenodd;fill:#D3AA3D;}
	.st19{fill-rule:evenodd;clip-rule:evenodd;fill:#F2C64D;}
	.st20{fill-rule:evenodd;clip-rule:evenodd;fill:#3389C2;}
	.st21{fill-rule:evenodd;clip-rule:evenodd;fill:#E7E5E4;}
	.st22{fill-rule:evenodd;clip-rule:evenodd;fill:#CACACB;}
	.st23{fill-rule:evenodd;clip-rule:evenodd;fill:#616060;}
	.st24{fill-rule:evenodd;clip-rule:evenodd;fill:#2077A8;}
	.st25{fill-rule:evenodd;clip-rule:evenodd;fill:#0F6898;}
	.st26{fill-rule:evenodd;clip-rule:evenodd;fill:#444545;}
	.st27{fill-rule:evenodd;clip-rule:evenodd;fill:#4393C8;}
	.st28{fill-rule:evenodd;clip-rule:evenodd;fill:#216D98;}
	.st29{fill-rule:evenodd;clip-rule:evenodd;fill:#CA9721;}
	.st30{fill-rule:evenodd;clip-rule:evenodd;fill:#B5E0F7;}
	.st31{fill-rule:evenodd;clip-rule:evenodd;fill:#499CD2;}
	.st32{fill-rule:evenodd;clip-rule:evenodd;fill:#29729F;}
	.st33{fill-rule:evenodd;clip-rule:evenodd;fill:#D5EDFA;}
	.st34{fill-rule:evenodd;clip-rule:evenodd;fill:#6F5B48;}
	.st35{fill-rule:evenodd;clip-rule:evenodd;fill:#604B38;}
	.st36{fill-rule:evenodd;clip-rule:evenodd;fill:#FCF9CC;}
	.st37{fill-rule:evenodd;clip-rule:evenodd;fill:#F3C09B;}
	.st38{fill-rule:evenodd;clip-rule:evenodd;fill:#001E2C;}
	.st39{fill-rule:evenodd;clip-rule:evenodd;fill:#F6CDB0;}
	.st40{fill-rule:evenodd;clip-rule:evenodd;fill:#F6D3BA;}
</style>
<g>
	<rect y="0" class="st0" width="1400" height="980"/>
	
		<ellipse transform="matrix(1 -7.938203e-03 7.938203e-03 1 -2.0983 6.228)" class="st1" cx="783.5" cy="267.4" rx="37.5" ry="37.5"/>
	
		<ellipse transform="matrix(1 -7.988705e-03 7.988705e-03 1 -2.1086 6.9848)" class="st1" cx="873.3" cy="267.4" rx="37.5" ry="37.5"/>
	
		<ellipse transform="matrix(1 -7.988705e-03 7.988705e-03 1 -2.1058 7.7019)" class="st1" cx="963" cy="267.4" rx="37.5" ry="37.5"/>
	<path class="st1" d="M281,758.5l-9.7-9.7L170.6,849.4c-36.7,36.7-57.7,82.9-63.3,130.6H268c3-7.3,7.5-14.1,13.3-19.9L382,859.4
		l-6.8-6.8l0,0L281,758.5z"/>
	<path class="st1" d="M1128,852.6l94.1-94.1l-22.4-22.4l-7.5,7.5l-39.6-39.6c4.9-12,6.2-25.2,4-37.9c2.7-4.9,4.3-10.5,4.3-16.4v-9.9
		h40.9V463.1h-41c-1.4-17.4-16.1-31.1-33.8-31.1h-43.7v-2.8c0-6.4-5.2-11.7-11.7-11.7h-30.8c-6.4,0-11.7,5.2-11.7,11.7v2.8h-2.3
		V319.3l-325.9,0v75.6h-12.4V180.9c0-10.2-3.3-19.5-8.4-25.8v-3.7c0-13.5-11-24.5-24.5-24.5H534.5c-8.3-18-26.5-30.5-47.4-30.5
		H291.2c-12.6,0-23,10.3-23,23v61.6v6.6v110.9l-17.5,42.1v232.4v53.1v3.2c0,9.6,7.9,17.5,17.5,17.5v2.5c0,18.9,11,34.3,24.5,34.3
		h52.9c0.6,6.9,2.1,13.8,4.8,20.4l-39.6,39.6l16.8,16.8l62.4,62.4l41.1-41.1c24.6,8.7,53.1,3,72.4-16.9l50.7-52.4
		c0.6-0.6,1.2-1.2,1.7-1.9l25.9-26.8h82.3c13.1,0,23.9-14.6,24.5-32.8h105.2c6.1,0,11-5,11-11v-68.2H876v68.3h57.2v9.9
		c0,8.5,3.1,16.2,8.3,22.2c-5.7,13.3-3.2,29.4,7.4,40.4l50.7,52.4c19.2,19.9,47.8,25.6,72.4,16.9l41.1,41.1l-7.5,7.5L1128,852.6z"/>
	<polygon class="st1" points="310.9,743.6 303.4,736.1 281,758.5 375.2,852.6 397.5,830.2 327.7,760.4 310.9,743.6 	"/>
	<path class="st1" d="M1231.8,748.7l-110.7,110.7l100.7,100.7c5.8,5.8,10.2,12.6,13.3,19.9h160.7c-5.5-47.6-26.6-93.9-63.3-130.6
		L1231.8,748.7z"/>
	<polygon class="st1" points="310.9,743.6 327.7,760.4 310.9,743.6 	"/>
	<g>
		<rect x="674.8" y="340.7" class="st2" width="325.9" height="176.7"/>
		<rect x="802" y="348" class="st3" width="185.8" height="162"/>
		<rect x="929.6" y="348" class="st4" width="58.2" height="162"/>
		<rect x="706.8" y="461.5" class="st5" width="66.5" height="22.2"/>
		<rect x="784.6" y="461.5" class="st5" width="33.3" height="22.2"/>
		<rect x="896.4" y="461.5" class="st3" width="91.5" height="32.1"/>
		<rect x="896.4" y="461.5" class="st5" width="68" height="32.1"/>
		<rect x="706.8" y="487.4" class="st6" width="106.4" height="6.2"/>
		<path class="st5" d="M743.4,364.5c-4,0-7,1.4-9,4.1c-2,2.7-2.9,7-2.9,12.9c0,5.6,1,9.8,3,12.6c2,2.8,5,4.2,8.9,4.2
			c4,0,7-1.4,9-4.1c2-2.7,2.9-7,2.9-12.8c0-5.6-1-9.9-3-12.7C750.3,365.9,747.3,364.5,743.4,364.5z M745.8,389.1
			c-0.5,1.4-1.2,2.2-2.4,2.2c-1.1,0-1.9-0.7-2.3-2.1c-0.5-1.4-0.7-4-0.7-7.7c0-3.8,0.2-6.3,0.7-7.8c0.5-1.4,1.2-2.1,2.3-2.1
			c1.1,0,1.9,0.7,2.3,2.2c0.5,1.5,0.7,4,0.7,7.7C746.4,385.1,746.2,387.6,745.8,389.1z"/>
		<path class="st5" d="M722.9,377.6c-1.5-0.9-3.2-1.3-5.1-1.3c-0.4,0-0.9,0-1.4,0c-0.5,0-1.3,0.1-2.5,0.4l0.4-4.3h11.2v-7.4h-18.8
			l-1.2,17.4l3.3,1.6c1.6-0.5,3.1-0.8,4.5-0.8c1.8,0,3.2,0.4,4.1,1.1c0.9,0.7,1.4,1.7,1.4,3c0,1.4-0.4,2.4-1.3,3.1
			c-0.9,0.7-2.2,1-3.8,1c-1.2,0-2.6-0.2-4.3-0.6c-1.6-0.4-3.1-0.9-4.4-1.5v7.3c2.4,1.2,5.6,1.8,9.4,1.8c4.5,0,7.8-1,10.1-3
			c2.2-2,3.3-4.8,3.3-8.5c0-2.1-0.4-4-1.3-5.6C725.6,379.7,724.5,378.5,722.9,377.6z"/>
	</g>
	<g>
		<path class="st7" d="M629.5,148.3H274.8c-13.5,0-24.5,11-24.5,24.5v334.6c0,13.5,11,24.5,24.5,24.5h354.7
			c13.5,0,24.5-11,24.5-24.5V172.8C654,159.3,643,148.3,629.5,148.3z"/>
		<path class="st8" d="M637.9,168H266.5c-13.5,0-24.5,15.5-24.5,34.3v468.4c0,18.9,11,34.3,24.5,34.3h371.4
			c13.5,0,24.5-15.5,24.5-34.3V202.3C662.4,183.4,651.4,168,637.9,168z"/>
		<path class="st8" d="M460.8,117.8H264.9c-12.6,0-23,10.3-23,23v68.2c0,7.3,6,13.2,13.2,13.2h244.6c7.3,0,13.2-6,13.2-13.2v-39
			C513,141.2,489.5,117.8,460.8,117.8z"/>
		<rect x="328.7" y="269" class="st7" width="246.9" height="94.9"/>
		<path class="st9" d="M394.8,306.8c-1.5-1.3-3.7-1.9-6.6-1.9h-8v23.2h6.3v-7.7h1.8c2.8,0,5-0.7,6.5-2.1c1.5-1.4,2.3-3.4,2.3-6
			C397,309.9,396.2,308.1,394.8,306.8z M389.8,314.5c-0.6,0.5-1.3,0.8-2.2,0.8h-1.1V310h1.6c1.7,0,2.6,0.8,2.6,2.3
			C390.6,313.2,390.3,314,389.8,314.5z"/>
		<path class="st9" d="M459.3,311.7c0-4.6-3.2-6.9-9.5-6.9h-7.6v23.2h6.3v-8.4h1.6l4.9,8.4h7.1l-6.8-10.1
			C458,316.5,459.3,314.4,459.3,311.7z M449.7,314.9h-1.2v-5.3h1.2c2.2,0,3.2,0.8,3.2,2.4C453,314,451.9,314.9,449.7,314.9z"/>
		<polygon class="st9" points="496.4,304.9 490.1,304.9 490.1,328.1 505.3,328.1 505.3,323 496.4,323 		"/>
		<path class="st9" d="M474.7,304.5c-3.7,0-6.5,1-8.4,3.1c-1.9,2-2.9,5-2.9,8.8c0,3.9,1,6.9,2.9,8.9c1.9,2,4.7,3.1,8.4,3.1
			c3.7,0,6.5-1,8.4-3c1.9-2,2.9-5,2.9-8.9c0-3.9-0.9-6.9-2.9-8.9C481.2,305.6,478.4,304.5,474.7,304.5z M478.2,321.6
			c-0.8,1.1-1.9,1.6-3.5,1.6c-3.1,0-4.7-2.2-4.7-6.7c0-4.5,1.6-6.8,4.7-6.8c1.5,0,2.7,0.6,3.5,1.7c0.8,1.1,1.2,2.8,1.2,5.1
			C479.3,318.8,479,320.5,478.2,321.6z"/>
		<polygon class="st9" points="515.3,304.9 509,304.9 509,328.1 524.2,328.1 524.2,323 515.3,323 		"/>
		<polygon class="st9" points="428.9,313.5 425,304.9 418.2,304.9 425.8,319.2 425.8,328.1 432.1,328.1 432.1,319 439.7,304.9 
			432.9,304.9 		"/>
		<path class="st9" d="M404.1,304.8l-7.6,23.3h6.9l1.2-4.4h7.5l1.1,4.4h6.9l-7.7-23.3H404.1z M405.9,318.6c1-3.6,1.6-6.1,1.9-7.3
			c0.3-1.2,0.5-2.1,0.6-2.7c0.1,0.6,0.3,1.5,0.7,2.9c0.3,1.3,0.6,2.4,0.9,3.3l1,3.8H405.9z"/>
	</g>
	<g>
		<rect x="555.2" y="416.2" class="st10" width="325.9" height="176.7"/>
		<rect x="682.4" y="423.6" class="st11" width="185.8" height="162"/>
		<rect x="810" y="423.6" class="st12" width="58.2" height="162"/>
		<rect x="587.1" y="537.1" class="st13" width="66.5" height="22.2"/>
		<rect x="664.9" y="537.1" class="st14" width="33.3" height="22.2"/>
		<rect x="776.7" y="537.1" class="st11" width="91.5" height="32.1"/>
		<rect x="776.7" y="537.1" class="st15" width="68" height="32.1"/>
		<path class="st16" d="M585.3,449.8l4.7,5.8l3.8-3.1c0.8-0.7,1.5-1.5,2.1-2.1c-0.1,1.8-0.1,3.7-0.1,5.9v17.7h9.2v-33.4h-8.1
			L585.3,449.8z"/>
		<path class="st16" d="M624.5,440c-4.1,0-7.1,1.4-9.1,4.2c-2,2.8-3,7.1-3,13.1c0,5.7,1,9.9,3,12.8c2,2.9,5,4.3,9,4.3
			c4.1,0,7.1-1.4,9.1-4.1c2-2.7,3-7.1,3-13c0-5.7-1-10-3-12.9C631.5,441.5,628.5,440,624.5,440z M626.9,465
			c-0.5,1.5-1.3,2.2-2.4,2.2c-1.1,0-1.9-0.7-2.4-2.1c-0.5-1.4-0.7-4-0.7-7.8c0-3.8,0.2-6.4,0.7-7.9c0.5-1.4,1.3-2.2,2.4-2.2
			c1.1,0,1.9,0.7,2.4,2.2c0.5,1.5,0.7,4.1,0.7,7.8C627.6,460.9,627.4,463.5,626.9,465z"/>
		<path class="st16" d="M651.9,440c-4.1,0-7.1,1.4-9.1,4.2c-2,2.8-3,7.1-3,13.1c0,5.7,1,9.9,3,12.8c2,2.9,5,4.3,9,4.3
			c4.1,0,7.1-1.4,9.1-4.1c2-2.7,3-7.1,3-13c0-5.7-1-10-3-12.9C658.9,441.5,655.9,440,651.9,440z M654.3,465
			c-0.5,1.5-1.3,2.2-2.4,2.2c-1.1,0-1.9-0.7-2.4-2.1c-0.5-1.4-0.7-4-0.7-7.8c0-3.8,0.2-6.4,0.7-7.9c0.5-1.4,1.3-2.2,2.4-2.2
			c1.1,0,1.9,0.7,2.4,2.2c0.5,1.5,0.7,4.1,0.7,7.8C655,460.9,654.8,463.5,654.3,465z"/>
		<rect x="587.1" y="563" class="st17" width="106.4" height="6.2"/>
	</g>
	<g>
		
			<ellipse transform="matrix(1 -7.988712e-03 7.988712e-03 1 -2.283 6.0585)" class="st18" cx="757.2" cy="288.8" rx="37.5" ry="37.5"/>
		
			<ellipse transform="matrix(1 -7.946576e-03 7.946576e-03 1 -2.271 6.0265)" class="st19" cx="757.2" cy="288.8" rx="36.1" ry="36.1"/>
		
			<ellipse transform="matrix(1 -7.987476e-03 7.987476e-03 1 -2.2826 6.0575)" class="st18" cx="757.2" cy="288.8" rx="30.6" ry="30.6"/>
		
			<ellipse transform="matrix(1 -7.964068e-03 7.964068e-03 1 -2.276 6.0397)" class="st19" cx="757.2" cy="288.8" rx="28.3" ry="28.3"/>
		<path class="st18" d="M765.6,288.4c-1.3-0.9-3.6-1.9-6.8-3.1l-0.1-7.2c2.7,0.2,5.3,0.8,7.8,1.8l2.3-5.7c-3-1.3-6.4-2-10.1-2.2
			l0-3.6l-3.3,0l0,3.7c-3.3,0.4-5.9,1.3-7.7,2.8c-1.8,1.5-2.7,3.5-2.7,5.8c0,2.2,0.7,4,2.1,5.5c1.4,1.5,3.7,2.8,6.9,4.1l1.6,0.6
			l0.1,7.6c-1.6-0.1-3.3-0.4-5.3-0.9c-2-0.5-3.7-1.1-5.1-1.8l0,6.5c3,1.3,6.5,2,10.5,2l0,4.9l3.3,0l0-5c3.4-0.3,6-1.3,7.8-2.9
			c1.9-1.6,2.8-3.7,2.8-6.3c0-1.4-0.3-2.7-1-3.7C767.9,290.2,766.9,289.3,765.6,288.4z M753,282.5c-0.5-0.5-0.7-1-0.8-1.8
			c0-1.4,1-2.2,3.1-2.6l0,5.7C754.3,283.4,753.5,283,753,282.5z M758.9,298.4l0-6.1c1.1,0.5,1.9,1,2.5,1.4c0.6,0.5,0.8,1,0.8,1.7
			C762.2,297,761.1,298,758.9,298.4z"/>
	</g>
	<g>
		
			<ellipse transform="matrix(1 -7.976494e-03 7.976494e-03 1 -2.2767 6.7652)" class="st18" cx="847" cy="288.8" rx="37.5" ry="37.5"/>
		
			<ellipse transform="matrix(1 -7.960695e-03 7.960695e-03 1 -2.2722 6.7518)" class="st19" cx="847" cy="288.8" rx="36.1" ry="36.1"/>
		
			<ellipse transform="matrix(1 -7.987476e-03 7.987476e-03 1 -2.2798 6.7745)" class="st18" cx="847" cy="288.8" rx="30.6" ry="30.6"/>
		
			<ellipse transform="matrix(1 -7.964068e-03 7.964068e-03 1 -2.2731 6.7547)" class="st19" cx="847" cy="288.8" rx="28.3" ry="28.3"/>
		<path class="st18" d="M855.3,288.4c-1.3-0.9-3.6-1.9-6.8-3.1l-0.1-7.2c2.7,0.2,5.3,0.8,7.8,1.8l2.3-5.7c-3-1.3-6.4-2-10.1-2.2
			l0-3.6l-3.3,0l0,3.7c-3.3,0.4-5.9,1.3-7.7,2.8c-1.8,1.5-2.7,3.5-2.7,5.8c0,2.2,0.7,4,2.1,5.5c1.4,1.5,3.6,2.8,6.9,4.1l1.6,0.6
			l0.1,7.6c-1.6-0.1-3.3-0.4-5.3-0.9c-2-0.5-3.7-1.1-5.1-1.8l0,6.5c3,1.3,6.5,2,10.5,2l0,4.9l3.3,0l0-5c3.4-0.3,6-1.3,7.8-2.9
			c1.9-1.6,2.8-3.7,2.8-6.3c0-1.4-0.3-2.7-1-3.7C857.7,290.2,856.7,289.3,855.3,288.4z M842.8,282.5c-0.5-0.5-0.7-1-0.8-1.8
			c0-1.4,1-2.2,3.1-2.6l0,5.7C844.1,283.4,843.3,283,842.8,282.5z M848.6,298.4l0-6.1c1.1,0.5,1.9,1,2.5,1.4c0.6,0.5,0.8,1,0.8,1.7
			C852,297,850.9,298,848.6,298.4z"/>
	</g>
	<g>
		
			<ellipse transform="matrix(1 -7.976494e-03 7.976494e-03 1 -2.2738 7.4812)" class="st18" cx="936.8" cy="288.8" rx="37.5" ry="37.5"/>
		
			<ellipse transform="matrix(1 -7.960695e-03 7.960695e-03 1 -2.2693 7.4664)" class="st19" cx="936.8" cy="288.8" rx="36.1" ry="36.1"/>
		
			<ellipse transform="matrix(1 -7.987476e-03 7.987476e-03 1 -2.2769 7.4915)" class="st18" cx="936.8" cy="288.8" rx="30.6" ry="30.6"/>
		
			<ellipse transform="matrix(1 -7.960836e-03 7.960836e-03 1 -2.2694 7.4665)" class="st19" cx="936.8" cy="288.8" rx="28.3" ry="28.3"/>
		<path class="st18" d="M945.1,288.4c-1.3-0.9-3.6-1.9-6.8-3.1l-0.1-7.2c2.7,0.2,5.3,0.8,7.8,1.8l2.3-5.7c-3-1.3-6.4-2-10.1-2.2
			l0-3.6l-3.3,0l0,3.7c-3.3,0.4-5.9,1.3-7.7,2.8c-1.8,1.5-2.7,3.5-2.7,5.8c0,2.2,0.7,4,2.1,5.5c1.4,1.5,3.6,2.8,6.9,4.1l1.6,0.6
			l0.1,7.6c-1.6-0.1-3.3-0.4-5.3-0.9c-2-0.5-3.7-1.1-5.1-1.8l0,6.5c3,1.3,6.5,2,10.5,2l0,4.9l3.3,0l0-5c3.4-0.3,6-1.3,7.8-2.9
			c1.9-1.6,2.8-3.7,2.8-6.3c0-1.4-0.3-2.7-1-3.7C947.5,290.2,946.5,289.3,945.1,288.4z M932.5,282.5c-0.5-0.5-0.7-1-0.8-1.8
			c0-1.4,1-2.2,3.1-2.6l0,5.7C933.8,283.4,933,283,932.5,282.5z M938.4,298.4l0-6.1c1.1,0.5,1.9,1,2.5,1.4c0.6,0.5,0.8,1,0.8,1.7
			C941.7,297,940.6,298,938.4,298.4z"/>
	</g>
	<g>
		<rect x="224.5" y="361.9" class="st20" width="35" height="285.5"/>
		<polygon class="st21" points="224.5,361.9 259.4,361.9 241.9,319.8 		"/>
		<polygon class="st22" points="235.1,361.9 248.8,361.9 241.9,319.8 		"/>
		<polygon class="st23" points="236.9,331.9 247,331.9 241.9,319.8 		"/>
		<rect x="241.9" y="361.9" class="st24" width="17.5" height="285.5"/>
		<path class="st25" d="M224.5,650.7c0,9.6,7.9,17.5,17.5,17.5h0c9.6,0,17.5-7.9,17.5-17.5v-56.4h-35V650.7z"/>
		<rect x="262.9" y="545.8" class="st21" width="6.6" height="89"/>
		<rect x="259.4" y="607.5" class="st25" width="3.5" height="18.3"/>
		<rect x="224.5" y="385.1" class="st23" width="35" height="80.3"/>
		<rect x="241.9" y="385.1" class="st26" width="17.5" height="80.3"/>
	</g>
	<g>
		<path class="st20" d="M767.5,553.3h-159c-6.1,0-11,5-11,11v96.7c0,6.1,5,11,11,11h159c6.1,0,11.1-5,11.1-11v-96.7
			C778.6,558.3,773.6,553.3,767.5,553.3z"/>
		<path class="st27" d="M608.6,553.3c-6.1,0-11,5-11,11v96.7c0,6.1,5,11,11,11H647c46.7-15.8,79.7-54.6,79.7-100
			c0-6.4-0.7-12.7-1.9-18.8H608.6z"/>
		<rect x="597.5" y="582.2" class="st28" width="181.1" height="61.1"/>
		<path class="st20" d="M597.5,643.3h97.6c17.2-16.6,28.5-37.8,31-61.1H597.5V643.3z"/>
		<polygon class="st7" points="692.4,619.7 698.8,619.7 698.8,618 694.7,618 694.7,615.9 698.5,615.9 698.5,614.1 694.7,614.1 
			694.7,612.6 698.8,612.6 698.8,610.9 692.4,610.9 		"/>
		<path class="st7" d="M680,611c-0.3-0.1-0.5-0.1-0.8-0.2c-0.3,0-0.6-0.1-1-0.1c-0.7,0-1.3,0.1-1.9,0.3c-0.6,0.2-1,0.5-1.4,0.9
			c-0.4,0.4-0.7,0.9-0.9,1.5c-0.2,0.6-0.3,1.2-0.3,1.9c0,0.7,0.1,1.4,0.3,2c0.2,0.6,0.5,1.1,0.9,1.4c0.4,0.4,0.9,0.7,1.4,0.9
			c0.6,0.2,1.2,0.3,1.8,0.3c0.4,0,0.8,0,1-0.1c0.3,0,0.5-0.1,0.8-0.2c0.2-0.1,0.4-0.1,0.6-0.2c0.2-0.1,0.4-0.2,0.6-0.3v-2.1H681
			c-0.1,0.1-0.2,0.2-0.4,0.3c-0.2,0.1-0.3,0.3-0.5,0.4c-0.2,0.1-0.5,0.3-0.7,0.3c-0.3,0.1-0.5,0.1-0.8,0.1c-0.3,0-0.6,0-0.9-0.1
			c-0.3-0.1-0.6-0.2-0.8-0.5c-0.2-0.2-0.4-0.5-0.6-0.9c-0.2-0.4-0.2-0.8-0.2-1.4c0-0.5,0.1-1,0.2-1.4c0.1-0.4,0.3-0.7,0.6-0.9
			c0.2-0.2,0.5-0.4,0.8-0.5c0.3-0.1,0.6-0.2,0.9-0.2c0.3,0,0.6,0,0.8,0.1c0.3,0.1,0.5,0.2,0.7,0.3c0.2,0.1,0.4,0.3,0.6,0.4
			c0.2,0.1,0.3,0.2,0.4,0.3h0.3v-2.1c-0.2-0.1-0.4-0.2-0.6-0.3C680.5,611.1,680.2,611,680,611z"/>
		<path class="st7" d="M707.1,611.6c-0.4-0.2-0.8-0.4-1.3-0.5c-0.5-0.1-1.1-0.2-1.9-0.2h-3.2v8.8h3.1c0.7,0,1.3-0.1,1.8-0.2
			c0.5-0.1,1-0.3,1.4-0.5c0.6-0.3,1-0.8,1.4-1.5c0.4-0.7,0.6-1.4,0.6-2.2c0-0.9-0.2-1.6-0.5-2.2C708.2,612.5,707.7,612,707.1,611.6z
			 M706.4,616.8c-0.2,0.4-0.5,0.7-0.9,1c-0.2,0.1-0.5,0.2-0.7,0.3c-0.3,0.1-0.6,0.1-1.2,0.1H703v-5.5h0.6c0.5,0,0.9,0,1.1,0.1
			c0.2,0,0.5,0.1,0.7,0.2c0.5,0.2,0.8,0.6,1,1c0.2,0.4,0.3,0.9,0.3,1.5C706.7,615.9,706.6,616.4,706.4,616.8z"/>
		<path class="st7" d="M689.8,614.9c0.3-0.4,0.5-0.9,0.5-1.6c0-0.5-0.1-0.9-0.3-1.2c-0.2-0.3-0.5-0.6-0.8-0.8
			c-0.3-0.2-0.7-0.3-1.1-0.4c-0.4-0.1-0.8-0.1-1.3-0.1h-3.8v8.8h2.3v-3.2h1l2.4,3.2h2.8l-2.9-3.8C689,615.7,689.5,615.3,689.8,614.9
			z M687.8,614.2c-0.1,0.2-0.2,0.3-0.3,0.4c-0.2,0.1-0.4,0.2-0.6,0.2c-0.2,0-0.5,0.1-0.9,0.1h-0.7v-2.4h0.8c0.3,0,0.5,0,0.7,0
			c0.2,0,0.4,0.1,0.5,0.1c0.2,0.1,0.4,0.2,0.5,0.4c0.1,0.2,0.1,0.3,0.1,0.6C687.9,613.9,687.8,614,687.8,614.2z"/>
		<polygon class="st7" points="716.5,612.6 719.3,612.6 719.3,619.7 721.6,619.7 721.6,612.6 724.3,612.6 724.3,610.9 716.5,610.9 
					"/>
		<path class="st7" d="M740.9,610.9l-3.3,8.8h2.3l0.6-1.8h3.2l0.6,1.8h2.4l-3.3-8.8H740.9z M741.1,616.3l1.1-3.1l1.1,3.1
			L741.1,616.3z"/>
		<path class="st7" d="M763.9,611.6c-0.4-0.2-0.8-0.4-1.3-0.5c-0.5-0.1-1.1-0.2-1.9-0.2h-3.2v8.8h3.1c0.7,0,1.3-0.1,1.8-0.2
			c0.5-0.1,1-0.3,1.4-0.5c0.6-0.3,1-0.8,1.4-1.5c0.4-0.7,0.6-1.4,0.6-2.2c0-0.9-0.2-1.6-0.5-2.2C765,612.5,764.5,612,763.9,611.6z
			 M763.2,616.8c-0.2,0.4-0.5,0.7-0.9,1c-0.2,0.1-0.5,0.2-0.7,0.3c-0.3,0.1-0.6,0.1-1.2,0.1h-0.6v-5.5h0.6c0.5,0,0.9,0,1.1,0.1
			c0.2,0,0.5,0.1,0.7,0.2c0.5,0.2,0.8,0.6,1,1c0.2,0.4,0.3,0.9,0.3,1.5C763.5,615.9,763.4,616.4,763.2,616.8z"/>
		<path class="st7" d="M754.9,614.9c0.3-0.4,0.5-0.9,0.5-1.6c0-0.5-0.1-0.9-0.3-1.2c-0.2-0.3-0.5-0.6-0.8-0.8
			c-0.3-0.2-0.7-0.3-1.1-0.4c-0.4-0.1-0.8-0.1-1.3-0.1H748v8.8h2.3l0-3.2h1l2.4,3.2h2.8l-2.9-3.8
			C754.1,615.7,754.6,615.3,754.9,614.9z M752.9,614.2c-0.1,0.2-0.2,0.3-0.3,0.4c-0.2,0.1-0.4,0.2-0.6,0.2c-0.2,0-0.5,0.1-0.9,0.1
			h-0.7l0-2.4h0.8c0.3,0,0.5,0,0.7,0c0.2,0,0.4,0.1,0.5,0.1c0.2,0.1,0.4,0.2,0.5,0.4c0.1,0.2,0.1,0.3,0.1,0.6
			C753,613.9,752.9,614,752.9,614.2z"/>
		<polygon class="st7" points="710.4,612.5 711.8,612.5 711.8,618.2 710.4,618.2 710.4,619.7 715.6,619.7 715.6,618.2 714.1,618.2 
			714.1,612.5 715.6,612.5 715.6,610.9 710.4,610.9 		"/>
		<path class="st7" d="M735.7,611c-0.3-0.1-0.5-0.1-0.8-0.2c-0.3,0-0.6-0.1-1-0.1c-0.7,0-1.3,0.1-1.9,0.3c-0.6,0.2-1,0.5-1.4,0.9
			c-0.4,0.4-0.7,0.9-0.9,1.5c-0.2,0.6-0.3,1.2-0.3,1.9c0,0.7,0.1,1.4,0.3,2c0.2,0.6,0.5,1.1,0.9,1.4c0.4,0.4,0.9,0.7,1.4,0.9
			c0.6,0.2,1.2,0.3,1.8,0.3c0.4,0,0.8,0,1-0.1c0.3,0,0.5-0.1,0.8-0.2c0.2-0.1,0.4-0.1,0.6-0.2c0.2-0.1,0.4-0.2,0.6-0.3v-2.1h-0.2
			c-0.1,0.1-0.2,0.2-0.4,0.3c-0.2,0.1-0.3,0.3-0.5,0.4c-0.2,0.1-0.5,0.3-0.7,0.3c-0.3,0.1-0.5,0.1-0.8,0.1c-0.3,0-0.6,0-0.9-0.1
			c-0.3-0.1-0.6-0.2-0.8-0.5c-0.2-0.2-0.4-0.5-0.6-0.9c-0.2-0.4-0.2-0.8-0.2-1.4c0-0.5,0.1-1,0.2-1.4c0.1-0.4,0.3-0.7,0.6-0.9
			c0.2-0.2,0.5-0.4,0.8-0.5c0.3-0.1,0.6-0.2,0.9-0.2c0.3,0,0.6,0,0.8,0.1c0.3,0.1,0.5,0.2,0.7,0.3c0.2,0.1,0.4,0.3,0.6,0.4
			c0.2,0.1,0.3,0.2,0.4,0.3h0.3v-2.1c-0.2-0.1-0.3-0.2-0.6-0.3C736.2,611.1,735.9,611,735.7,611z"/>
		<path class="st29" d="M644.2,599.3h-22.5c-3.6,0-6.6,3-6.6,6.6v12c0,3.6,3,6.6,6.6,6.6h22.5c3.6,0,6.6-3,6.6-6.6v-12
			C650.8,602.3,647.8,599.3,644.2,599.3z"/>
		<rect x="615.1" y="654.5" class="st7" width="35.6" height="2.3"/>
		<path class="st7" d="M700,626h-1.8l-3.1,3.9v1.3h3.3v1.6h1.7v-1.6h0.9v-1.2H700V626z M698.4,629.9h-2l2-2.4V629.9z"/>
		<path class="st7" d="M744.8,626h-1.5c0,0.2-0.1,0.3-0.1,0.5c-0.1,0.1-0.2,0.2-0.4,0.3c-0.1,0.1-0.3,0.1-0.5,0.1
			c-0.2,0-0.4,0-0.6,0v1.1h1.4v3.5h-1.4v1.2h4.5v-1.2h-1.4V626z"/>
		<path class="st7" d="M735.5,629.1L735.5,629.1c0.4-0.2,0.7-0.4,0.9-0.7c0.2-0.3,0.3-0.5,0.3-0.9c0-0.5-0.2-0.9-0.7-1.2
			c-0.5-0.3-1.1-0.5-2-0.5c-0.8,0-1.4,0.2-1.9,0.5c-0.5,0.3-0.7,0.8-0.7,1.3c0,0.4,0.1,0.7,0.3,1c0.2,0.3,0.5,0.5,0.9,0.7v0
			c-0.5,0.2-0.8,0.4-1,0.7c-0.2,0.3-0.3,0.6-0.3,0.9c0,0.3,0.1,0.5,0.2,0.8c0.1,0.2,0.3,0.4,0.5,0.6c0.2,0.2,0.5,0.3,0.9,0.4
			c0.4,0.1,0.8,0.2,1.3,0.2c0.9,0,1.6-0.2,2.1-0.6c0.5-0.4,0.8-0.9,0.8-1.5c0-0.4-0.1-0.8-0.3-1.1
			C736.3,629.5,736,629.2,735.5,629.1z M733.2,627.3c0.1-0.1,0.1-0.1,0.2-0.2c0.1-0.1,0.2-0.1,0.3-0.1c0.1,0,0.2,0,0.3,0
			c0.3,0,0.5,0.1,0.7,0.2c0.2,0.1,0.3,0.3,0.3,0.5c0,0.2,0,0.4-0.1,0.5c-0.1,0.1-0.2,0.3-0.3,0.4c-0.2-0.1-0.4-0.1-0.5-0.2
			c-0.1-0.1-0.3-0.1-0.3-0.1c-0.2-0.1-0.4-0.2-0.5-0.3c-0.1-0.1-0.2-0.2-0.2-0.4C733.1,627.5,733.2,627.4,733.2,627.3z M735.1,631.3
			c-0.1,0.1-0.2,0.2-0.3,0.2c-0.1,0.1-0.2,0.1-0.3,0.1c-0.1,0-0.2,0-0.3,0c-0.4,0-0.7-0.1-0.9-0.3c-0.2-0.2-0.3-0.4-0.3-0.7
			c0-0.2,0.1-0.4,0.2-0.6c0.1-0.2,0.2-0.3,0.3-0.4c0.1,0,0.3,0.1,0.5,0.2c0.2,0.1,0.3,0.1,0.4,0.2c0.3,0.1,0.6,0.3,0.7,0.4
			c0.1,0.1,0.2,0.3,0.2,0.5C735.2,631.1,735.1,631.2,735.1,631.3z"/>
		<path class="st7" d="M693.6,629.6c-0.1-0.1-0.3-0.2-0.5-0.3c-0.2-0.1-0.3-0.1-0.5-0.1v-0.1c0.4-0.1,0.7-0.3,0.9-0.6
			c0.2-0.3,0.3-0.6,0.3-1c0-0.3-0.1-0.5-0.2-0.7c-0.1-0.2-0.3-0.4-0.5-0.5c-0.2-0.1-0.5-0.2-0.8-0.3c-0.3-0.1-0.7-0.1-1.1-0.1
			c-0.4,0-0.9,0-1.3,0.1c-0.4,0.1-0.8,0.2-1,0.3v1.5h0.2c0.3-0.2,0.6-0.3,1-0.4c0.3-0.1,0.6-0.1,0.9-0.1c0.1,0,0.3,0,0.4,0
			c0.2,0,0.3,0.1,0.4,0.1c0.1,0,0.2,0.1,0.3,0.2c0.1,0.1,0.1,0.2,0.1,0.3c0,0.2,0,0.3-0.1,0.4c-0.1,0.1-0.2,0.2-0.3,0.2
			c-0.1,0.1-0.3,0.1-0.5,0.1c-0.2,0-0.4,0-0.6,0h-0.4v1.2h0.4c0.2,0,0.4,0,0.6,0c0.2,0,0.4,0,0.5,0.1c0.1,0,0.3,0.1,0.4,0.2
			c0.1,0.1,0.1,0.3,0.1,0.5c0,0.2,0,0.4-0.1,0.5c-0.1,0.1-0.2,0.2-0.3,0.3c-0.1,0.1-0.3,0.2-0.5,0.2c-0.2,0-0.4,0-0.6,0
			c-0.3,0-0.6-0.1-1-0.2c-0.4-0.1-0.7-0.3-0.9-0.4h-0.2v1.5c0.2,0.1,0.6,0.2,1,0.3c0.4,0.1,0.9,0.1,1.4,0.1c0.5,0,0.9,0,1.2-0.2
			c0.3-0.1,0.6-0.2,0.9-0.4c0.3-0.2,0.5-0.4,0.6-0.7c0.1-0.3,0.2-0.6,0.2-0.9c0-0.3,0-0.5-0.1-0.7
			C693.9,629.8,693.7,629.7,693.6,629.6z"/>
		<path class="st7" d="M758.8,628.8c-0.2-0.1-0.5-0.2-0.8-0.3c-0.3-0.1-0.6-0.1-1-0.1c-0.1,0-0.2,0-0.4,0c-0.1,0-0.3,0-0.4,0l0-1.1
			h3.2V626h-4.8v3.8l0.2,0c0.2,0,0.4-0.1,0.7-0.1c0.2,0,0.5-0.1,0.8-0.1c0.2,0,0.4,0,0.6,0c0.2,0,0.4,0.1,0.6,0.2
			c0.1,0.1,0.2,0.2,0.3,0.3c0.1,0.1,0.1,0.2,0.1,0.4c0,0.2,0,0.4-0.1,0.4c-0.1,0.1-0.1,0.2-0.2,0.3c-0.1,0.1-0.3,0.2-0.5,0.2
			c-0.2,0-0.4,0.1-0.6,0.1c-0.3,0-0.6-0.1-1-0.2c-0.3-0.1-0.6-0.2-0.9-0.4h-0.2v1.5c0.2,0.1,0.5,0.2,0.9,0.3
			c0.4,0.1,0.8,0.1,1.4,0.1c0.5,0,0.9-0.1,1.2-0.2c0.4-0.1,0.7-0.3,1-0.5c0.3-0.2,0.4-0.5,0.6-0.8c0.1-0.3,0.2-0.6,0.2-1
			c0-0.4-0.1-0.8-0.2-1C759.2,629.1,759,628.9,758.8,628.8z"/>
		<path class="st7" d="M706.6,628.6c-0.2-0.1-0.4-0.2-0.6-0.3c-0.2-0.1-0.5-0.1-0.7-0.1c-0.3,0-0.6,0-0.8,0.1
			c-0.3,0.1-0.5,0.2-0.7,0.3c0.1-0.5,0.3-0.9,0.6-1.2c0.3-0.3,0.8-0.4,1.3-0.4c0.2,0,0.5,0,0.7,0.1c0.2,0,0.3,0.1,0.4,0.1h0.2V626
			c-0.1,0-0.2,0-0.5-0.1c-0.3,0-0.5,0-0.7,0c-0.7,0-1.2,0.1-1.7,0.3c-0.5,0.2-0.9,0.4-1.2,0.8c-0.3,0.4-0.5,0.8-0.7,1.2
			c-0.1,0.5-0.2,1-0.2,1.6c0,0.6,0.1,1.1,0.2,1.5c0.1,0.4,0.4,0.7,0.6,1c0.2,0.2,0.5,0.4,0.9,0.5c0.3,0.1,0.7,0.2,1.1,0.2
			c0.4,0,0.8-0.1,1.1-0.2c0.3-0.1,0.6-0.3,0.8-0.5c0.2-0.2,0.4-0.5,0.5-0.8c0.1-0.3,0.2-0.6,0.2-1c0-0.4-0.1-0.8-0.2-1.1
			C707,629,706.8,628.8,706.6,628.6z M705.6,631.1c-0.1,0.1-0.1,0.3-0.2,0.4c-0.1,0.1-0.2,0.2-0.3,0.2c-0.1,0-0.2,0.1-0.3,0.1
			c-0.1,0-0.3,0-0.4-0.1c-0.1,0-0.2-0.1-0.3-0.2c-0.1-0.1-0.2-0.3-0.3-0.5c-0.1-0.2-0.1-0.5-0.1-0.9c0-0.1,0-0.2,0-0.3
			c0-0.1,0-0.1,0-0.2c0.1,0,0.3-0.1,0.4-0.1c0.1,0,0.3,0,0.4,0c0.2,0,0.3,0,0.5,0c0.1,0,0.3,0.1,0.4,0.2c0.1,0.1,0.2,0.2,0.3,0.3
			c0.1,0.1,0.1,0.3,0.1,0.5C705.7,630.7,705.6,630.9,705.6,631.1z"/>
		<path class="st7" d="M686.7,628.8c-0.2-0.1-0.5-0.2-0.8-0.3c-0.3-0.1-0.6-0.1-1-0.1c-0.1,0-0.2,0-0.4,0c-0.1,0-0.3,0-0.4,0v-1.1
			l3.2,0V626h-4.8v3.8h0.2c0.2,0,0.4-0.1,0.7-0.1c0.2,0,0.5-0.1,0.8-0.1c0.2,0,0.4,0,0.6,0c0.2,0,0.4,0.1,0.6,0.2
			c0.1,0.1,0.2,0.2,0.3,0.3c0.1,0.1,0.1,0.2,0.1,0.4c0,0.2,0,0.4-0.1,0.4c-0.1,0.1-0.1,0.2-0.2,0.3c-0.1,0.1-0.3,0.2-0.5,0.2
			c-0.2,0-0.4,0.1-0.6,0.1c-0.3,0-0.6-0.1-0.9-0.2c-0.3-0.1-0.6-0.2-0.9-0.4h-0.2v1.5c0.2,0.1,0.5,0.2,0.9,0.3
			c0.4,0.1,0.8,0.1,1.4,0.1c0.5,0,0.9-0.1,1.2-0.2c0.4-0.1,0.7-0.3,1-0.5c0.2-0.2,0.4-0.5,0.6-0.8c0.1-0.3,0.2-0.6,0.2-1
			c0-0.4-0.1-0.8-0.2-1C687.2,629.1,686.9,628.9,686.7,628.8z"/>
		<path class="st7" d="M751.8,629.1L751.8,629.1c0.4-0.2,0.7-0.4,0.9-0.7c0.2-0.3,0.3-0.5,0.3-0.9c0-0.5-0.2-0.9-0.7-1.2
			c-0.5-0.3-1.1-0.5-2-0.5c-0.8,0-1.4,0.2-1.9,0.5c-0.5,0.3-0.7,0.8-0.7,1.3c0,0.4,0.1,0.7,0.3,1c0.2,0.3,0.5,0.5,0.9,0.7v0
			c-0.5,0.2-0.8,0.4-1,0.7c-0.2,0.3-0.3,0.6-0.3,0.9c0,0.3,0.1,0.5,0.2,0.8c0.1,0.2,0.3,0.4,0.5,0.6c0.2,0.2,0.5,0.3,0.9,0.4
			c0.4,0.1,0.8,0.2,1.3,0.2c0.9,0,1.6-0.2,2.1-0.6c0.5-0.4,0.8-0.9,0.8-1.5c0-0.4-0.1-0.8-0.3-1.1
			C752.7,629.5,752.3,629.2,751.8,629.1z M749.5,627.3c0.1-0.1,0.1-0.1,0.2-0.2c0.1-0.1,0.2-0.1,0.3-0.1c0.1,0,0.2,0,0.3,0
			c0.3,0,0.5,0.1,0.7,0.2c0.2,0.1,0.3,0.3,0.3,0.5c0,0.2,0,0.4-0.1,0.5c-0.1,0.1-0.2,0.3-0.3,0.4c-0.2-0.1-0.4-0.1-0.5-0.2
			c-0.1-0.1-0.3-0.1-0.3-0.1c-0.2-0.1-0.4-0.2-0.5-0.3c-0.1-0.1-0.2-0.2-0.2-0.4C749.4,627.5,749.5,627.4,749.5,627.3z M751.4,631.3
			c-0.1,0.1-0.2,0.2-0.3,0.2c-0.1,0.1-0.2,0.1-0.3,0.1c-0.1,0-0.2,0-0.3,0c-0.4,0-0.7-0.1-0.9-0.3c-0.2-0.2-0.3-0.4-0.3-0.7
			c0-0.2,0.1-0.4,0.2-0.6c0.1-0.2,0.2-0.3,0.4-0.4c0.1,0,0.3,0.1,0.5,0.2c0.2,0.1,0.3,0.1,0.4,0.2c0.3,0.1,0.6,0.3,0.7,0.4
			c0.1,0.1,0.2,0.3,0.2,0.5C751.5,631.1,751.5,631.2,751.4,631.3z"/>
		<path class="st7" d="M729.5,628.6c-0.2-0.1-0.4-0.2-0.6-0.3c-0.2-0.1-0.5-0.1-0.7-0.1c-0.3,0-0.6,0-0.8,0.1
			c-0.3,0.1-0.5,0.2-0.7,0.3c0.1-0.5,0.3-0.9,0.6-1.2c0.3-0.3,0.8-0.4,1.3-0.4c0.2,0,0.5,0,0.7,0.1c0.2,0,0.3,0.1,0.4,0.1h0.2V626
			c-0.1,0-0.3,0-0.5-0.1c-0.3,0-0.5,0-0.7,0c-0.7,0-1.2,0.1-1.7,0.3c-0.5,0.2-0.9,0.4-1.2,0.8c-0.3,0.4-0.5,0.8-0.7,1.2
			c-0.1,0.5-0.2,1-0.2,1.6c0,0.6,0.1,1.1,0.2,1.5c0.1,0.4,0.3,0.7,0.6,1c0.2,0.2,0.5,0.4,0.9,0.5c0.3,0.1,0.7,0.2,1.1,0.2
			c0.4,0,0.8-0.1,1.1-0.2c0.3-0.1,0.6-0.3,0.9-0.5c0.2-0.2,0.4-0.5,0.5-0.8c0.1-0.3,0.2-0.6,0.2-1c0-0.4-0.1-0.8-0.2-1.1
			C729.9,629,729.7,628.8,729.5,628.6z M728.5,631.1c-0.1,0.1-0.1,0.3-0.2,0.4c-0.1,0.1-0.2,0.2-0.3,0.2c-0.1,0-0.2,0.1-0.3,0.1
			c-0.1,0-0.3,0-0.4-0.1c-0.1,0-0.2-0.1-0.3-0.2c-0.1-0.1-0.2-0.3-0.3-0.5c-0.1-0.2-0.1-0.5-0.1-0.9c0-0.1,0-0.2,0-0.3
			c0-0.1,0-0.1,0-0.2c0.1,0,0.3-0.1,0.4-0.1c0.1,0,0.3,0,0.4,0c0.2,0,0.3,0,0.5,0c0.2,0,0.3,0.1,0.4,0.2c0.1,0.1,0.2,0.2,0.3,0.3
			c0.1,0.1,0.1,0.3,0.1,0.5C728.5,630.7,728.5,630.9,728.5,631.1z"/>
		<path class="st7" d="M716.1,628.8c-0.2-0.1-0.5-0.2-0.8-0.3c-0.3-0.1-0.6-0.1-1-0.1c-0.1,0-0.2,0-0.4,0c-0.1,0-0.3,0-0.4,0l0-1.1
			h3.2V626H712v3.8l0.2,0c0.2,0,0.4-0.1,0.7-0.1c0.3,0,0.5-0.1,0.8-0.1c0.2,0,0.4,0,0.6,0c0.2,0,0.4,0.1,0.6,0.2
			c0.1,0.1,0.2,0.2,0.3,0.3c0.1,0.1,0.1,0.2,0.1,0.4c0,0.2,0,0.4-0.1,0.4c-0.1,0.1-0.1,0.2-0.2,0.3c-0.1,0.1-0.3,0.2-0.5,0.2
			c-0.2,0-0.4,0.1-0.6,0.1c-0.3,0-0.6-0.1-0.9-0.2c-0.3-0.1-0.6-0.2-0.9-0.4h-0.2v1.5c0.2,0.1,0.5,0.2,0.9,0.3
			c0.4,0.1,0.8,0.1,1.4,0.1c0.5,0,0.9-0.1,1.2-0.2c0.4-0.1,0.7-0.3,1-0.5c0.2-0.2,0.4-0.5,0.6-0.8c0.1-0.3,0.2-0.6,0.2-1
			c0-0.4-0.1-0.8-0.2-1C716.6,629.1,716.4,628.9,716.1,628.8z"/>
		<path class="st7" d="M765.5,628.6c-0.2-0.1-0.4-0.2-0.6-0.3c-0.2-0.1-0.5-0.1-0.7-0.1c-0.3,0-0.6,0-0.8,0.1
			c-0.3,0.1-0.5,0.2-0.7,0.3c0.1-0.5,0.3-0.9,0.6-1.2c0.3-0.3,0.8-0.4,1.3-0.4c0.2,0,0.5,0,0.7,0.1c0.2,0,0.3,0.1,0.4,0.1h0.2V626
			c-0.1,0-0.2,0-0.5-0.1c-0.3,0-0.5,0-0.7,0c-0.7,0-1.2,0.1-1.7,0.3c-0.5,0.2-0.9,0.4-1.2,0.8c-0.3,0.4-0.5,0.8-0.7,1.2
			c-0.1,0.5-0.2,1-0.2,1.6c0,0.6,0.1,1.1,0.2,1.5c0.1,0.4,0.3,0.7,0.6,1c0.2,0.2,0.5,0.4,0.9,0.5c0.3,0.1,0.7,0.2,1.1,0.2
			c0.4,0,0.8-0.1,1.1-0.2c0.3-0.1,0.6-0.3,0.8-0.5c0.2-0.2,0.4-0.5,0.5-0.8c0.1-0.3,0.2-0.6,0.2-1c0-0.4-0.1-0.8-0.2-1.1
			C766,629,765.8,628.8,765.5,628.6z M764.5,631.1c-0.1,0.1-0.1,0.3-0.2,0.4c-0.1,0.1-0.2,0.2-0.3,0.2c-0.1,0-0.2,0.1-0.3,0.1
			c-0.1,0-0.3,0-0.4-0.1c-0.1,0-0.2-0.1-0.3-0.2c-0.1-0.1-0.2-0.3-0.3-0.5c-0.1-0.2-0.1-0.5-0.1-0.9c0-0.1,0-0.2,0-0.3
			c0-0.1,0-0.1,0-0.2c0.1,0,0.3-0.1,0.4-0.1c0.1,0,0.3,0,0.4,0c0.2,0,0.3,0,0.5,0c0.2,0,0.3,0.1,0.4,0.2c0.1,0.1,0.2,0.2,0.3,0.3
			c0.1,0.1,0.1,0.3,0.1,0.5C764.6,630.7,764.6,630.9,764.5,631.1z"/>
		<path class="st7" d="M722.8,626.5c-0.2-0.2-0.5-0.4-0.8-0.5c-0.3-0.1-0.7-0.2-1.1-0.2c-0.8,0-1.5,0.2-2,0.7
			c-0.5,0.5-0.8,1-0.8,1.8c0,0.4,0.1,0.8,0.2,1.1c0.2,0.3,0.4,0.5,0.6,0.7c0.2,0.1,0.4,0.2,0.6,0.3c0.2,0.1,0.5,0.1,0.7,0.1
			c0.3,0,0.6,0,0.8-0.1c0.2-0.1,0.5-0.2,0.7-0.3c0,0.3-0.1,0.5-0.2,0.7c-0.1,0.2-0.3,0.4-0.4,0.5c-0.2,0.1-0.4,0.2-0.6,0.3
			c-0.2,0.1-0.5,0.1-0.7,0.1c-0.3,0-0.5,0-0.7-0.1c-0.2,0-0.3-0.1-0.4-0.1h-0.2v1.3c0.1,0,0.2,0,0.5,0.1c0.3,0,0.5,0,0.7,0
			c0.6,0,1.2-0.1,1.6-0.3c0.5-0.2,0.9-0.4,1.2-0.8c0.3-0.3,0.5-0.7,0.7-1.2c0.1-0.5,0.2-1,0.2-1.6c0-0.6-0.1-1.1-0.2-1.5
			C723.2,627.1,723,626.8,722.8,626.5z M721.9,629c0,0.1,0,0.1,0,0.1c-0.1,0-0.2,0.1-0.4,0.1c-0.2,0-0.3,0-0.4,0c-0.2,0-0.3,0-0.5,0
			c-0.1,0-0.3-0.1-0.4-0.2c-0.1-0.1-0.2-0.2-0.3-0.3c-0.1-0.1-0.1-0.3-0.1-0.5c0-0.2,0-0.4,0.1-0.6c0.1-0.2,0.1-0.3,0.2-0.4
			c0.1-0.1,0.2-0.2,0.3-0.2c0.1,0,0.2-0.1,0.3-0.1c0.1,0,0.2,0,0.4,0.1c0.1,0,0.2,0.1,0.3,0.2c0.1,0.1,0.2,0.3,0.3,0.5
			c0.1,0.2,0.1,0.5,0.1,0.9C721.9,628.8,721.9,628.9,721.9,629z"/>
	</g>
	<g>
		<g>
			<rect x="849.7" y="484.5" class="st30" width="325.9" height="176.7"/>
			<rect x="976.9" y="491.8" class="st20" width="185.8" height="162"/>
			<rect x="1104.5" y="491.8" class="st31" width="58.2" height="162"/>
			<rect x="881.7" y="605.3" class="st32" width="66.5" height="22.2"/>
			<rect x="959.5" y="605.3" class="st32" width="33.3" height="22.2"/>
			<rect x="1071.3" y="605.3" class="st20" width="91.5" height="32.1"/>
			<rect x="1071.3" y="605.3" class="st32" width="68" height="32.1"/>
			<rect x="881.7" y="631.2" class="st33" width="106.4" height="6.2"/>
			<path class="st32" d="M918.9,508.7c-4,0-6.9,1.4-8.8,4c-1.9,2.7-2.9,6.9-2.9,12.7c0,5.5,1,9.7,3,12.5c2,2.8,4.9,4.2,8.8,4.2
				c4,0,6.9-1.3,8.8-4c1.9-2.7,2.9-6.9,2.9-12.6c0-5.6-1-9.7-3-12.5C925.6,510.1,922.7,508.7,918.9,508.7z M921.2,533
				c-0.4,1.4-1.2,2.1-2.3,2.1c-1.1,0-1.9-0.7-2.3-2.1c-0.5-1.4-0.7-3.9-0.7-7.6c0-3.7,0.2-6.3,0.7-7.6c0.5-1.4,1.2-2.1,2.3-2.1
				c1.1,0,1.9,0.7,2.3,2.2c0.5,1.4,0.7,4,0.7,7.6C921.9,529.1,921.6,531.6,921.2,533z"/>
			<path class="st32" d="M891.5,534.2c3.6-3.2,6-5.4,7.1-6.6c1.1-1.2,2-2.3,2.7-3.3c0.7-1,1.2-2.1,1.5-3.2c0.3-1.1,0.5-2.3,0.5-3.5
				c0-1.7-0.5-3.2-1.4-4.6c-0.9-1.4-2.2-2.4-3.8-3.2c-1.6-0.7-3.5-1.1-5.6-1.1c-1.7,0-3.2,0.2-4.5,0.5c-1.3,0.3-2.6,0.8-3.7,1.5
				c-1.1,0.6-2.5,1.7-4.2,3.2l4.8,5.6c1.3-1.1,2.5-2,3.5-2.6c1-0.6,2.1-0.9,3.1-0.9c1,0,1.8,0.2,2.3,0.7c0.5,0.5,0.8,1.2,0.8,2
				c0,0.7-0.1,1.3-0.4,2c-0.3,0.6-0.8,1.4-1.5,2.2c-0.7,0.9-2.2,2.5-4.4,4.9l-7.9,8v5.8h23.6v-7.2h-12.3V534.2z"/>
		</g>
		<g>
			<path class="st34" d="M1100.7,453.4H940.8c-18.7,0-33.9,15.3-33.9,33.9v183.8c0,18.7,15.3,33.9,33.9,33.9h159.9
				c18.7,0,33.9-15.3,33.9-33.9V487.3C1134.7,468.6,1119.4,453.4,1100.7,453.4z"/>
			<path class="st35" d="M1045.4,438.9h-30.7c-6.4,0-11.7,5.2-11.7,11.7v67c0,14.9,12.2,27,27,27c14.9,0,27-12.2,27-27v-67
				C1057.1,444.1,1051.8,438.9,1045.4,438.9z"/>
			<circle class="st36" cx="1030" cy="514.1" r="18.7"/>
		</g>
	</g>
	<g>
		<g>
			<path class="st37" d="M519.7,631.6l-46.9,48.5c-10.8,11.2-10.5,29.2,0.7,40.1c11.2,10.8,29.2,10.5,40.1-0.7l46.9-48.5
				c10.8-11.2,10.5-29.2-0.7-40.1C548.5,620.1,530.5,620.4,519.7,631.6z"/>
			<path class="st38" d="M136.9,849.4c-36.6,36.7-57.7,82.9-63.3,130.6h160.7c3-7.3,7.5-14.1,13.3-19.9l100.7-100.7L237.7,748.7
				L136.9,849.4z"/>
			
				<rect x="289.8" y="727.8" transform="matrix(0.7071 -0.7071 0.7071 0.7071 -472.1666 448.7866)" class="st7" width="31.6" height="133.1"/>
			
				<rect x="307.4" y="704.4" transform="matrix(0.7071 -0.7071 0.7071 0.7071 -438.2518 462.8278)" class="st37" width="64.3" height="112"/>
			<path class="st37" d="M456.9,599c-27.1-26.3-70.8-25.5-97.1,1.6L331,630.4c-26.3,27.1-25.5,70.8,1.6,97.1l40.2,38.9
				c27.1,26.2,70.8,25.5,97.1-1.6l50.7-52.4c14.2-14.7,13.8-38.3-0.9-52.5L456.9,599z"/>
			<path class="st39" d="M436.1,610.8c-20.7-20-54-19.5-74,1.2l-21.9,22.7c-20,20.7-19.5,54,1.2,74l30.6,29.6
				c20.7,20,54,19.5,74-1.2l38.7-40c10.8-11.2,10.5-29.2-0.7-40L436.1,610.8z"/>
			<path class="st40" d="M418.4,611.3c-12.3-11.9-32.1-11.6-44,0.7l-27,27.9c-11.9,12.3-11.6,32.1,0.7,44l13.5,13.1
				c12.3,11.9,32.1,11.6,44-0.7l37-38.2c6.4-6.7,6.3-17.4-0.4-23.8L418.4,611.3z"/>
		</g>
		<g>
			<path class="st38" d="M1198.2,748.7l-110.7,110.7l100.7,100.7c5.8,5.8,10.2,12.6,13.3,19.9h160.7c-5.5-47.6-26.6-93.9-63.3-130.6
				L1198.2,748.7z"/>
			
				<rect x="1063.7" y="778.5" transform="matrix(0.7071 -0.7071 0.7071 0.7071 -230.6618 1031.8218)" class="st7" width="133.1" height="31.6"/>
			
				<rect x="1040.3" y="728.3" transform="matrix(0.7071 -0.7071 0.7071 0.7071 -216.6122 997.9242)" class="st37" width="112" height="64.3"/>
			<path class="st37" d="M1076.1,600.7c-26.3-27.1-69.9-27.9-97.1-1.6l-62.9,60.8c-14.7,14.2-15.1,37.8-0.9,52.5l50.7,52.4
				c26.3,27.1,69.9,27.9,97.1,1.6l40.2-38.9c27.1-26.2,27.9-69.9,1.6-97.1L1076.1,600.7z"/>
			<path class="st39" d="M1073.8,612c-20-20.7-53.3-21.3-74-1.2l-47.9,46.3c-11.2,10.8-11.5,28.8-0.7,40l38.7,40
				c20,20.7,53.3,21.3,74,1.2l30.6-29.6c20.7-20,21.3-53.3,1.2-74L1073.8,612z"/>
			<path class="st40" d="M1061.6,612c-11.9-12.3-31.7-12.6-44-0.7l-23.8,23c-6.7,6.4-6.8,17.2-0.4,23.8l37,38.2
				c11.9,12.3,31.7,12.6,44,0.7l13.5-13.1c12.3-11.9,12.6-31.7,0.7-44L1061.6,612z"/>
		</g>
	</g>
	<polygon class="st7" points="802.6,762.1 792.4,762.1 792.4,799.8 817.1,799.8 817.1,791.6 802.6,791.6 	"/>
	<path class="st7" d="M621.8,762l-12.3,37.9h11.2l1.9-7.1h12.3l1.8,7.1h11.1L635.4,762H621.8z M624.7,784.4c1.6-5.9,2.6-9.9,3-11.9
		c0.4-2,0.8-3.5,0.9-4.3c0.2,1,0.5,2.5,1.1,4.7c0.5,2.2,1,4,1.4,5.3l1.6,6.2H624.7z"/>
	<path class="st7" d="M736.6,761.6c-6,0-10.5,1.7-13.7,5c-3.1,3.3-4.7,8.1-4.7,14.4c0,6.3,1.6,11.2,4.7,14.5c3.2,3.3,7.7,5,13.6,5
		c6,0,10.6-1.7,13.7-5c3.1-3.3,4.7-8.1,4.7-14.5c0-6.4-1.5-11.2-4.6-14.5C747.1,763.2,742.6,761.6,736.6,761.6z M742.3,789.2
		c-1.2,1.8-3.2,2.7-5.7,2.7c-5.1,0-7.6-3.6-7.6-10.9c0-7.4,2.6-11,7.7-11c2.5,0,4.4,0.9,5.7,2.7c1.3,1.8,1.9,4.6,1.9,8.3
		C744.2,784.7,743.5,787.4,742.3,789.2z"/>
	<path class="st7" d="M606.7,765.3c-2.4-2.1-6-3.1-10.7-3.1h-13.1v37.7h10.2v-12.5h2.9c4.6,0,8.1-1.1,10.6-3.4
		c2.5-2.3,3.7-5.5,3.7-9.8C610.2,770.3,609,767.3,606.7,765.3z M598.6,777.7c-0.9,0.9-2.1,1.3-3.7,1.3h-1.9v-8.7h2.6
		c2.8,0,4.2,1.3,4.2,3.8C599.9,775.7,599.5,776.9,598.6,777.7z"/>
	<path class="st7" d="M711.6,773.3c0-7.4-5.1-11.1-15.4-11.1h-12.4v37.7H694v-13.7h2.6l8,13.7h11.5l-11-16.4
		C709.5,781,711.6,777.6,711.6,773.3z M696,778.5H694v-8.6h2c3.5,0,5.2,1.3,5.2,3.9C701.3,776.9,699.5,778.5,696,778.5z"/>
	<polygon class="st7" points="771.9,762.1 761.7,762.1 761.7,799.8 786.4,799.8 786.4,791.6 771.9,791.6 	"/>
	<polygon class="st7" points="662.2,776.1 655.8,762.1 644.7,762.1 657.1,785.4 657.1,799.8 667.4,799.8 667.4,785.1 679.8,762.1 
		668.7,762.1 	"/>
	<path class="st7" d="M850.6,827.4c0.2,0,0.4-0.1,0.6-0.2c0.2-0.2,0.3-0.4,0.3-0.7s-0.1-0.6-0.3-0.7c-0.2-0.2-0.4-0.2-0.6-0.2
		c-0.2,0-0.4,0.1-0.6,0.2c-0.2,0.2-0.2,0.4-0.2,0.7c0,0.3,0.1,0.6,0.2,0.7C850.2,827.4,850.4,827.4,850.6,827.4z"/>
	<rect x="871.5" y="829.1" class="st7" width="1.4" height="9.6"/>
	<path class="st7" d="M529.6,853.3c-1.3,0-2.3,0.5-3.1,1.4c-0.8,0.9-1.1,2.1-1.1,3.7c0,1.5,0.4,2.7,1.2,3.6c0.8,0.9,1.9,1.3,3.4,1.3
		c0.6,0,1.2,0,1.7-0.1c0.5-0.1,0.9-0.3,1.5-0.5v-1.3c-1,0.4-2,0.6-3.1,0.6c-1,0-1.7-0.3-2.3-0.9c-0.5-0.6-0.8-1.4-0.9-2.6h6.6v-0.9
		c0-1.3-0.4-2.3-1-3.1C531.8,853.7,530.8,853.3,529.6,853.3z M526.9,857.3c0.1-0.9,0.3-1.6,0.8-2.1c0.5-0.5,1.1-0.8,1.8-0.8
		c0.8,0,1.3,0.2,1.7,0.7c0.4,0.5,0.6,1.2,0.6,2.1H526.9z"/>
	<path class="st7" d="M536.2,838.5c0.5,0.2,1.1,0.3,1.7,0.3c1.3,0,2.2-0.4,2.9-1.3c0.7-0.9,1.1-2.1,1.1-3.7c0-1.6-0.3-2.8-1-3.7
		c-0.7-0.9-1.7-1.3-2.9-1.3c-0.6,0-1.2,0.1-1.7,0.3c-0.5,0.2-0.9,0.6-1.3,1.1h-0.1l-0.2-1.3h-1.2v13.9h1.4V839c0-0.5,0-1-0.1-1.6
		h0.1C535.2,837.9,535.7,838.3,536.2,838.5z M534.9,833.5c0-1.2,0.2-2,0.7-2.6c0.4-0.5,1.1-0.8,2.1-0.8c0.9,0,1.5,0.3,2,1
		c0.5,0.6,0.7,1.6,0.7,2.7c0,1.2-0.2,2.1-0.7,2.8c-0.5,0.7-1.1,1-1.9,1c-1,0-1.7-0.3-2.2-0.9c-0.4-0.6-0.7-1.5-0.7-2.9V833.5z"/>
	<path class="st7" d="M872.2,827.4c0.2,0,0.4-0.1,0.6-0.2c0.2-0.2,0.3-0.4,0.3-0.7s-0.1-0.6-0.3-0.7c-0.2-0.2-0.4-0.2-0.6-0.2
		c-0.2,0-0.5,0.1-0.6,0.2c-0.2,0.2-0.2,0.4-0.2,0.7c0,0.3,0.1,0.6,0.2,0.7C871.7,827.4,871.9,827.4,872.2,827.4z"/>
	<path class="st7" d="M504.7,836.9c-1,0.4-2,0.7-3.1,0.7c-1,0-1.7-0.3-2.3-0.9c-0.5-0.6-0.8-1.4-0.9-2.6h6.6v-0.9
		c0-1.3-0.4-2.3-1-3.1c-0.7-0.8-1.6-1.2-2.9-1.2c-1.3,0-2.3,0.5-3.1,1.4c-0.8,0.9-1.1,2.1-1.1,3.7c0,1.5,0.4,2.7,1.2,3.6
		c0.8,0.9,1.9,1.3,3.3,1.3c0.6,0,1.2,0,1.7-0.1c0.5-0.1,0.9-0.3,1.5-0.5V836.9z M499.4,830.9c0.5-0.5,1.1-0.8,1.8-0.8
		c0.8,0,1.3,0.2,1.7,0.7c0.4,0.5,0.6,1.2,0.6,2.1h-5C498.7,832.1,498.9,831.4,499.4,830.9z"/>
	<path class="st7" d="M835.1,827.4c0.2,0,0.4-0.1,0.6-0.2c0.2-0.2,0.3-0.4,0.3-0.7s-0.1-0.6-0.3-0.7c-0.2-0.2-0.4-0.2-0.6-0.2
		c-0.2,0-0.4,0.1-0.6,0.2c-0.2,0.2-0.2,0.4-0.2,0.7c0,0.3,0.1,0.6,0.2,0.7C834.7,827.4,834.9,827.4,835.1,827.4z"/>
	<rect x="849.9" y="829.1" class="st7" width="1.5" height="9.6"/>
	<path class="st7" d="M507.5,857.6c-0.8-0.3-1.4-0.5-1.7-0.7c-0.3-0.2-0.5-0.3-0.6-0.5c-0.1-0.2-0.2-0.4-0.2-0.7
		c0-0.4,0.2-0.7,0.5-0.9c0.4-0.2,0.9-0.3,1.6-0.3c0.8,0,1.6,0.2,2.6,0.6l0.5-1.2c-1-0.4-2-0.6-3-0.6c-1.1,0-2,0.2-2.6,0.7
		c-0.6,0.5-1,1.1-1,1.9c0,0.4,0.1,0.8,0.3,1.1c0.2,0.3,0.5,0.6,0.8,0.8c0.4,0.2,1,0.5,1.9,0.9c0.9,0.4,1.6,0.7,1.9,0.9
		c0.3,0.3,0.5,0.6,0.5,1c0,0.5-0.2,0.9-0.6,1.1c-0.4,0.2-1,0.4-1.7,0.4c-0.5,0-1-0.1-1.5-0.2c-0.5-0.1-1-0.3-1.5-0.6v1.4
		c0.7,0.4,1.7,0.6,3,0.6c1.2,0,2.1-0.2,2.8-0.7c0.7-0.5,1-1.2,1-2.1c0-0.6-0.2-1.2-0.6-1.6C509.4,858.4,508.6,858,507.5,857.6z"/>
	<path class="st7" d="M520.7,857.6c-0.8-0.3-1.4-0.5-1.7-0.7c-0.3-0.2-0.5-0.3-0.6-0.5c-0.1-0.2-0.2-0.4-0.2-0.7
		c0-0.4,0.2-0.7,0.5-0.9c0.4-0.2,0.9-0.3,1.6-0.3c0.8,0,1.7,0.2,2.6,0.6l0.5-1.2c-1-0.4-2-0.6-3-0.6c-1.1,0-2,0.2-2.6,0.7
		c-0.6,0.5-1,1.1-1,1.9c0,0.4,0.1,0.8,0.3,1.1c0.2,0.3,0.5,0.6,0.8,0.8c0.4,0.2,1,0.5,1.9,0.9c0.9,0.4,1.6,0.7,1.9,0.9
		c0.3,0.3,0.5,0.6,0.5,1c0,0.5-0.2,0.9-0.6,1.1c-0.4,0.2-1,0.4-1.7,0.4c-0.5,0-1-0.1-1.5-0.2c-0.5-0.1-1-0.3-1.5-0.6v1.4
		c0.7,0.4,1.7,0.6,3,0.6c1.2,0,2.1-0.2,2.8-0.7c0.7-0.5,1-1.2,1-2.1c0-0.6-0.2-1.2-0.6-1.6C522.6,858.4,521.8,858,520.7,857.6z"/>
	<path class="st7" d="M519.3,830.7c0.3,0.4,0.5,1,0.5,1.7v6.2h1.5v-6.3c0-1.2-0.3-2.1-0.8-2.7c-0.5-0.6-1.4-0.8-2.4-0.8
		c-0.7,0-1.3,0.1-1.9,0.4c-0.5,0.3-1,0.7-1.2,1.2h-0.1c-0.5-1.1-1.4-1.6-2.9-1.6c-0.6,0-1.2,0.1-1.7,0.4c-0.5,0.3-0.9,0.6-1.2,1.1
		H509l-0.2-1.3h-1.2v9.6h1.5v-5c0-1.2,0.2-2.1,0.6-2.7c0.4-0.5,1.1-0.8,2-0.8c0.7,0,1.2,0.2,1.5,0.6c0.3,0.4,0.5,1,0.5,1.7v6.2h1.4
		v-5.4c0-1.1,0.2-1.9,0.6-2.4c0.4-0.5,1.1-0.8,2-0.8C518.5,830.1,519,830.3,519.3,830.7z"/>
	<rect x="611.2" y="873.8" class="st7" width="1.5" height="13.6"/>
	<path class="st7" d="M575.2,853.3c-0.6,0-1.1,0.1-1.7,0.2c-0.6,0.1-1.1,0.4-1.5,0.6l0.4,1.1c1-0.5,1.9-0.7,2.7-0.7
		c0.7,0,1.2,0.2,1.6,0.5c0.3,0.4,0.5,0.9,0.5,1.7v0.6l-1.6,0.1c-3.1,0.1-4.6,1.1-4.6,3c0,0.9,0.3,1.6,0.8,2.1
		c0.5,0.5,1.3,0.7,2.2,0.7c0.7,0,1.3-0.1,1.8-0.3c0.5-0.2,0.9-0.6,1.4-1.2h0.1l0.3,1.4h1.1v-6.5c0-1.1-0.3-1.9-0.8-2.4
		C577.2,853.5,576.4,853.3,575.2,853.3z M577.2,859.2c0,0.9-0.3,1.6-0.8,2.1c-0.5,0.5-1.2,0.7-2.1,0.7c-0.6,0-1-0.1-1.3-0.4
		c-0.3-0.3-0.5-0.7-0.5-1.2c0-0.7,0.3-1.2,0.8-1.5c0.5-0.3,1.3-0.5,2.5-0.5l1.5-0.1V859.2z"/>
	<path class="st7" d="M916.7,827.4c0.2,0,0.4-0.1,0.6-0.2c0.2-0.2,0.3-0.4,0.3-0.7s-0.1-0.6-0.3-0.7c-0.2-0.2-0.4-0.2-0.6-0.2
		c-0.2,0-0.4,0.1-0.6,0.2c-0.2,0.2-0.2,0.4-0.2,0.7c0,0.3,0.1,0.6,0.2,0.7C916.3,827.4,916.5,827.4,916.7,827.4z"/>
	<path class="st7" d="M593.3,855.1c0.3,0.4,0.5,1,0.5,1.7v6.2h1.5v-6.3c0-1.2-0.3-2.1-0.8-2.7c-0.5-0.6-1.4-0.8-2.4-0.8
		c-0.7,0-1.3,0.1-1.9,0.4c-0.5,0.3-1,0.7-1.2,1.2h-0.1c-0.5-1.1-1.4-1.6-2.9-1.6c-0.6,0-1.2,0.1-1.7,0.4c-0.5,0.3-0.9,0.6-1.2,1.1
		H583l-0.2-1.3h-1.2v9.6h1.5v-5c0-1.2,0.2-2.1,0.6-2.7c0.4-0.5,1.1-0.8,2-0.8c0.7,0,1.2,0.2,1.5,0.6c0.3,0.4,0.5,1,0.5,1.7v6.2h1.5
		v-5.3c0-1.1,0.2-1.9,0.6-2.4c0.4-0.5,1.1-0.8,2-0.8C592.5,854.5,593,854.7,593.3,855.1z"/>
	<path class="st7" d="M604.8,877.6c-1.3,0-2.3,0.5-3.1,1.4c-0.8,0.9-1.1,2.1-1.1,3.7c0,1.5,0.4,2.7,1.2,3.6c0.8,0.9,1.9,1.3,3.3,1.3
		c0.6,0,1.2,0,1.7-0.1c0.5-0.1,0.9-0.3,1.5-0.5v-1.3c-1,0.4-2,0.6-3.1,0.6c-1,0-1.7-0.3-2.3-0.9c-0.5-0.6-0.8-1.4-0.9-2.6h6.6V882
		c0-1.3-0.4-2.3-1-3.1C606.9,878,606,877.6,604.8,877.6z M602.1,881.7c0.1-0.9,0.4-1.6,0.8-2.1c0.5-0.5,1.1-0.7,1.8-0.7
		c0.8,0,1.3,0.2,1.7,0.7c0.4,0.5,0.6,1.2,0.6,2.1H602.1z"/>
	<path class="st7" d="M905.5,838.8c0.7,0,1.2,0,1.7-0.1c0.5-0.1,0.9-0.3,1.5-0.5v-1.3c-1,0.4-2,0.7-3.1,0.7c-1,0-1.7-0.3-2.3-0.9
		c-0.5-0.6-0.8-1.4-0.9-2.6h6.6v-0.9c0-1.3-0.4-2.3-1-3.1c-0.7-0.8-1.7-1.2-2.9-1.2c-1.3,0-2.3,0.5-3.1,1.4
		c-0.8,0.9-1.1,2.1-1.1,3.7c0,1.5,0.4,2.7,1.2,3.6C902.9,838.4,904.1,838.8,905.5,838.8z M903.3,830.9c0.5-0.5,1.1-0.8,1.8-0.8
		c0.8,0,1.3,0.2,1.7,0.7c0.4,0.5,0.6,1.2,0.6,2.1h-5C902.5,832.1,902.8,831.4,903.3,830.9z"/>
	<path class="st7" d="M595.7,884.2c-0.3,1-0.5,1.6-0.6,1.9H595c-0.1-0.4-0.4-1.3-0.8-2.6l-2.1-5.7h-1.6l3.6,9.6h1.7l3.6-9.6H598
		C596.8,881.1,596.1,883.2,595.7,884.2z"/>
	<path class="st7" d="M571.5,838.6v-5.4c0-1.1,0.2-1.9,0.6-2.4c0.4-0.5,1.1-0.8,2-0.8c0.7,0,1.2,0.2,1.5,0.6c0.3,0.4,0.5,1,0.5,1.7
		v6.2h1.5v-6.3c0-1.2-0.3-2.1-0.8-2.7c-0.5-0.6-1.4-0.8-2.4-0.8c-0.7,0-1.3,0.1-1.9,0.4c-0.5,0.3-1,0.7-1.2,1.2h-0.1
		c-0.5-1.1-1.4-1.6-2.9-1.6c-0.6,0-1.2,0.1-1.7,0.4c-0.5,0.3-0.9,0.6-1.2,1.1h-0.1l-0.2-1.3h-1.2v9.6h1.5v-5c0-1.2,0.2-2.1,0.6-2.7
		c0.4-0.5,1.1-0.8,2-0.8c0.7,0,1.2,0.2,1.5,0.6c0.3,0.4,0.5,1,0.5,1.7v6.2H571.5z"/>
	<rect x="834.4" y="829.1" class="st7" width="1.4" height="9.6"/>
	<rect x="567.1" y="849.4" class="st7" width="1.5" height="13.6"/>
	<path class="st7" d="M558.1,858.5c0,1.2-0.2,2.1-0.7,2.7c-0.5,0.5-1.2,0.8-2.2,0.8c-0.8,0-1.3-0.2-1.7-0.6c-0.4-0.4-0.5-1-0.5-1.7
		v-6.2h-1.5v6.3c0,1.2,0.3,2.1,0.9,2.7c0.6,0.5,1.5,0.8,2.6,0.8c0.7,0,1.3-0.1,1.8-0.4c0.5-0.2,0.9-0.6,1.2-1.1h0.1l0.2,1.3h1.2
		v-9.6h-1.5V858.5z"/>
	<path class="st7" d="M542.4,853.3l0,0.7l0.1,0.7h-0.1c-0.7-0.9-1.7-1.4-3-1.4c-1.2,0-2.2,0.4-2.9,1.3c-0.7,0.9-1,2.1-1,3.7
		c0,1.6,0.3,2.8,1,3.7c0.7,0.9,1.7,1.3,2.9,1.3c1.3,0,2.3-0.5,3-1.5h0.1l0.2,1.3h1.2v-13.6h-1.4V853.3z M542.4,858.6
		c0,1.2-0.2,2.1-0.7,2.6c-0.4,0.5-1.2,0.8-2.2,0.8c-0.9,0-1.5-0.3-2-0.9c-0.5-0.6-0.7-1.5-0.7-2.8c0-1.2,0.2-2.1,0.7-2.8
		c0.5-0.7,1.1-1,2-1c1,0,1.7,0.3,2.2,0.9c0.4,0.6,0.7,1.6,0.7,2.9V858.6z"/>
	<path class="st7" d="M547.7,833.2c-0.8-0.3-1.4-0.5-1.7-0.7c-0.3-0.2-0.5-0.3-0.6-0.5c-0.1-0.2-0.2-0.4-0.2-0.7
		c0-0.4,0.2-0.7,0.5-0.9c0.4-0.2,0.9-0.3,1.6-0.3c0.8,0,1.6,0.2,2.6,0.6l0.5-1.2c-1-0.4-2-0.6-3-0.6c-1.1,0-2,0.2-2.6,0.7
		c-0.6,0.5-1,1.1-1,1.8c0,0.4,0.1,0.8,0.3,1.1c0.2,0.3,0.5,0.6,0.8,0.8c0.4,0.2,1,0.5,1.9,0.9c0.9,0.4,1.6,0.7,1.9,0.9
		c0.3,0.3,0.5,0.6,0.5,1c0,0.5-0.2,0.9-0.6,1.1c-0.4,0.2-1,0.4-1.7,0.4c-0.5,0-1-0.1-1.5-0.2c-0.5-0.1-1-0.3-1.5-0.6v1.4
		c0.7,0.4,1.7,0.6,3,0.6c1.2,0,2.1-0.2,2.8-0.7c0.7-0.5,1-1.2,1-2.1c0-0.6-0.2-1.2-0.6-1.6C549.6,834,548.8,833.6,547.7,833.2z"/>
	<rect x="916" y="829.1" class="st7" width="1.4" height="9.6"/>
	<path class="st7" d="M559.4,834.1c0,1.2-0.2,2.1-0.7,2.7c-0.5,0.5-1.2,0.8-2.2,0.8c-0.8,0-1.3-0.2-1.7-0.6c-0.4-0.4-0.5-1-0.5-1.7
		v-6.2h-1.5v6.3c0,1.2,0.3,2.1,0.9,2.7c0.6,0.6,1.5,0.8,2.6,0.8c0.7,0,1.3-0.1,1.8-0.4c0.5-0.3,0.9-0.6,1.2-1.1h0.1l0.2,1.3h1.2
		v-9.6h-1.4V834.1z"/>
	<rect x="562.6" y="849.4" class="st7" width="1.5" height="13.6"/>
	<path class="st7" d="M702.3,838.8c0.3-0.8,0.5-1.4,0.7-2l-0.1-0.2h-1.6c-0.1,0.5-0.2,1.3-0.4,2.1c-0.2,0.9-0.4,1.6-0.5,2.3h1.1
		C701.8,840.3,702.1,839.6,702.3,838.8z"/>
	<rect x="607" y="825" class="st7" width="1.5" height="13.6"/>
	<path class="st7" d="M778.2,838.8c0.6,0,1.2,0,1.7-0.1c0.5-0.1,0.9-0.3,1.5-0.5v-1.3c-1,0.4-2,0.7-3.1,0.7c-1,0-1.7-0.3-2.3-0.9
		c-0.5-0.6-0.8-1.4-0.8-2.6h6.6v-0.9c0-1.3-0.3-2.3-1-3.1c-0.7-0.8-1.6-1.2-2.8-1.2c-1.3,0-2.3,0.5-3.1,1.4
		c-0.8,0.9-1.1,2.1-1.1,3.7c0,1.5,0.4,2.7,1.2,3.6C775.6,838.4,776.8,838.8,778.2,838.8z M775.9,830.9c0.5-0.5,1.1-0.8,1.8-0.8
		c0.8,0,1.3,0.2,1.7,0.7c0.4,0.5,0.6,1.2,0.6,2.1h-5C775.2,832.1,775.5,831.4,775.9,830.9z"/>
	<path class="st7" d="M731.2,833.6c0-1.2,0.2-2.1,0.7-2.7c0.5-0.5,1.2-0.8,2.2-0.8c0.8,0,1.3,0.2,1.7,0.6c0.4,0.4,0.5,1,0.5,1.8v6.2
		h1.4v-6.3c0-1.2-0.3-2.1-0.9-2.7c-0.6-0.6-1.4-0.8-2.6-0.8c-0.7,0-1.3,0.1-1.8,0.4c-0.5,0.3-1,0.6-1.3,1.1h-0.1l-0.2-1.3h-1.2v9.6
		h1.5V833.6z"/>
	<path class="st7" d="M597.8,838.2c0.7,0.4,1.4,0.6,2.3,0.6c1.4,0,2.5-0.4,3.3-1.3c0.8-0.9,1.2-2.1,1.2-3.7c0-1.5-0.4-2.7-1.2-3.6
		c-0.8-0.9-1.9-1.3-3.2-1.3c-1.4,0-2.5,0.4-3.2,1.3c-0.8,0.9-1.2,2.1-1.2,3.7c0,1,0.2,1.9,0.5,2.6
		C596.6,837.2,597.1,837.8,597.8,838.2z M597.9,831.1c0.5-0.6,1.2-0.9,2.2-0.9c1,0,1.7,0.3,2.2,0.9c0.5,0.6,0.7,1.6,0.7,2.8
		c0,1.2-0.2,2.2-0.7,2.8c-0.5,0.6-1.2,1-2.2,1c-1,0-1.7-0.3-2.2-1c-0.5-0.6-0.7-1.6-0.7-2.8C597.2,832.6,597.4,831.7,597.9,831.1z"
		/>
	<path class="st7" d="M660.7,838.8c0.7,0,1.3-0.1,1.8-0.3c0.5-0.2,0.9-0.6,1.4-1.2h0.1l0.3,1.4h1.1v-6.5c0-1.1-0.3-1.9-0.8-2.4
		c-0.6-0.5-1.4-0.8-2.5-0.8c-0.6,0-1.1,0.1-1.7,0.2c-0.6,0.1-1.1,0.3-1.5,0.6l0.4,1.1c1-0.5,1.9-0.7,2.7-0.7c0.7,0,1.2,0.2,1.6,0.5
		c0.3,0.4,0.5,0.9,0.5,1.7v0.6l-1.6,0.1c-3.1,0.1-4.6,1.1-4.6,3c0,0.9,0.3,1.6,0.8,2.1C659,838.6,659.7,838.8,660.7,838.8z
		 M659.9,834.5c0.5-0.3,1.3-0.5,2.5-0.5l1.5-0.1v0.9c0,0.9-0.3,1.6-0.8,2.1c-0.5,0.5-1.2,0.7-2.1,0.7c-0.6,0-1-0.1-1.3-0.4
		c-0.3-0.3-0.5-0.7-0.5-1.2C659.2,835.4,659.4,834.9,659.9,834.5z"/>
	<path class="st7" d="M741.2,833.4c0.4,0.2,1,0.5,1.9,0.9c0.9,0.4,1.6,0.7,1.9,0.9c0.3,0.3,0.5,0.6,0.5,1c0,0.5-0.2,0.9-0.6,1.1
		c-0.4,0.2-1,0.4-1.7,0.4c-0.5,0-1-0.1-1.5-0.2c-0.5-0.1-1-0.3-1.5-0.6v1.4c0.7,0.4,1.7,0.6,3,0.6c1.2,0,2.1-0.2,2.8-0.7
		c0.7-0.5,1-1.2,1-2.1c0-0.6-0.2-1.2-0.6-1.6c-0.4-0.4-1.2-0.8-2.3-1.2c-0.8-0.3-1.4-0.5-1.7-0.7c-0.3-0.2-0.5-0.3-0.6-0.5
		c-0.1-0.2-0.2-0.4-0.2-0.7c0-0.4,0.2-0.7,0.5-0.9c0.3-0.2,0.9-0.3,1.6-0.3c0.8,0,1.7,0.2,2.6,0.6l0.5-1.2c-1-0.4-2-0.6-3-0.6
		c-1.1,0-2,0.2-2.6,0.7c-0.6,0.5-1,1.1-1,1.8c0,0.4,0.1,0.8,0.3,1.1C740.6,832.9,740.8,833.1,741.2,833.4z"/>
	<path class="st7" d="M602.1,854.6c0.3,0,0.6,0,1,0.1c0.4,0.1,0.7,0.2,1,0.3l0.4-1.2c-0.3-0.1-0.6-0.3-1.1-0.4
		c-0.5-0.1-0.9-0.1-1.4-0.1c-1.4,0-2.5,0.4-3.3,1.3c-0.8,0.9-1.2,2.1-1.2,3.7c0,1.6,0.4,2.8,1.1,3.6c0.8,0.9,1.8,1.3,3.2,1.3
		c1,0,1.8-0.2,2.4-0.5v-1.3c-0.8,0.3-1.7,0.5-2.5,0.5c-0.9,0-1.6-0.3-2.1-0.9c-0.5-0.6-0.7-1.5-0.7-2.7
		C599.2,855.8,600.2,854.6,602.1,854.6z"/>
	<rect x="729.6" y="849.4" class="st7" width="1.4" height="13.6"/>
	<path class="st7" d="M714.2,838.8c1,0,1.8-0.2,2.4-0.5V837c-0.8,0.3-1.7,0.5-2.5,0.5c-0.9,0-1.6-0.3-2.1-0.9
		c-0.5-0.6-0.7-1.5-0.7-2.7c0-2.5,1-3.7,2.9-3.7c0.3,0,0.6,0,1,0.1c0.4,0.1,0.7,0.2,1,0.3l0.5-1.2c-0.3-0.1-0.6-0.3-1.1-0.4
		c-0.5-0.1-0.9-0.2-1.4-0.2c-1.4,0-2.5,0.4-3.3,1.3c-0.8,0.9-1.2,2.1-1.2,3.7c0,1.6,0.4,2.8,1.1,3.6
		C711.8,838.4,712.8,838.8,714.2,838.8z"/>
	<path class="st7" d="M713.9,853.4v6.3c0,1.2,0.3,2.1,0.9,2.7c0.6,0.5,1.5,0.8,2.6,0.8c0.7,0,1.3-0.1,1.8-0.4
		c0.5-0.2,0.9-0.6,1.2-1.1h0.1l0.2,1.3h1.2v-9.6h-1.5v5c0,1.2-0.2,2.1-0.7,2.7c-0.5,0.5-1.2,0.8-2.2,0.8c-0.8,0-1.3-0.2-1.7-0.6
		c-0.4-0.4-0.5-1-0.5-1.7v-6.2H713.9z"/>
	<path class="st7" d="M691.2,861.2c-0.2,0.2-0.3,0.5-0.3,0.9c0,0.4,0.1,0.7,0.3,0.9c0.2,0.2,0.4,0.3,0.7,0.3c0.3,0,0.6-0.1,0.8-0.3
		c0.2-0.2,0.3-0.5,0.3-0.9c0-0.4-0.1-0.7-0.3-0.9c-0.2-0.2-0.5-0.3-0.8-0.3C691.6,860.9,691.4,861,691.2,861.2z"/>
	<path class="st7" d="M709.5,860.9L709.5,860.9l-7-10.7h-1.7V863h1.4v-7.3c0-1,0-2.2-0.1-3.5h0.1l7,10.7h1.7v-12.8h-1.4v7.3
		c0,0.4,0,1,0,1.8C709.5,860.3,709.5,860.8,709.5,860.9z"/>
	<path class="st7" d="M689,838.8c0.6,0,1.2,0,1.7-0.1c0.5-0.1,0.9-0.3,1.5-0.5v-1.3c-1,0.4-2,0.7-3.1,0.7c-1,0-1.7-0.3-2.3-0.9
		c-0.5-0.6-0.8-1.4-0.9-2.6h6.6v-0.9c0-1.3-0.4-2.3-1-3.1c-0.7-0.8-1.6-1.2-2.8-1.2c-1.3,0-2.3,0.5-3.1,1.4
		c-0.8,0.9-1.1,2.1-1.1,3.7c0,1.5,0.4,2.7,1.2,3.6C686.5,838.4,687.6,838.8,689,838.8z M686.8,830.9c0.5-0.5,1.1-0.8,1.8-0.8
		c0.8,0,1.3,0.2,1.7,0.7c0.4,0.5,0.6,1.2,0.6,2.1h-5C686.1,832.1,686.3,831.4,686.8,830.9z"/>
	<path class="st7" d="M669.8,833.6c0-1.2,0.2-2.1,0.6-2.7c0.4-0.5,1.1-0.8,2-0.8c0.7,0,1.2,0.2,1.5,0.6c0.3,0.4,0.5,1,0.5,1.7v6.2
		h1.5v-5.4c0-1.1,0.2-1.9,0.6-2.4c0.4-0.5,1.1-0.8,2-0.8c0.7,0,1.2,0.2,1.5,0.6c0.3,0.4,0.5,1,0.5,1.7v6.2h1.5v-6.3
		c0-1.2-0.3-2.1-0.8-2.7c-0.5-0.6-1.4-0.8-2.4-0.8c-0.7,0-1.3,0.1-1.9,0.4c-0.5,0.3-1,0.7-1.2,1.2h-0.1c-0.5-1.1-1.4-1.6-2.9-1.6
		c-0.6,0-1.2,0.1-1.7,0.4c-0.5,0.3-0.9,0.6-1.2,1.1h-0.1l-0.2-1.3h-1.2v9.6h1.5V833.6z"/>
	<path class="st7" d="M684.9,860.3c0,2,0.9,2.9,2.8,2.9c0.2,0,0.5,0,0.8-0.1c0.3,0,0.5-0.1,0.7-0.2v-1.1c-0.1,0-0.3,0.1-0.6,0.1
		c-0.2,0-0.5,0.1-0.7,0.1c-0.5,0-0.9-0.2-1.1-0.5c-0.3-0.3-0.4-0.8-0.4-1.3v-5.6h2.8v-1.1h-2.8v-2.2h-0.8l-0.6,2l-1.4,0.6v0.7h1.4
		V860.3z"/>
	<path class="st7" d="M495.1,853.8c-0.5,0.3-0.9,0.8-1.3,1.4h-0.1l-0.2-1.8h-1.2v9.6h1.5v-5.1c0-0.9,0.3-1.7,0.8-2.4
		c0.6-0.6,1.2-0.9,2-0.9c0.3,0,0.7,0,1,0.1l0.2-1.4c-0.3-0.1-0.7-0.1-1.1-0.1C496.1,853.3,495.6,853.4,495.1,853.8z"/>
	<path class="st7" d="M794.2,854.6c-0.7,0.9-1.1,2.1-1.1,3.7c0,1.6,0.4,2.8,1,3.7c0.7,0.9,1.7,1.3,2.9,1.3c1.3,0,2.3-0.5,3-1.5h0.1
		l0.2,1.3h1.2v-13.6h-1.4v3.9l0,0.7l0.1,0.7h-0.1c-0.7-0.9-1.7-1.4-3-1.4C795.9,853.3,794.9,853.7,794.2,854.6z M799.5,855.4
		c0.4,0.6,0.7,1.6,0.7,2.9v0.3c0,1.2-0.2,2.1-0.7,2.6c-0.4,0.5-1.2,0.8-2.2,0.8c-0.9,0-1.5-0.3-2-0.9c-0.5-0.6-0.7-1.5-0.7-2.8
		c0-1.2,0.2-2.1,0.7-2.8c0.5-0.7,1.1-1,2-1C798.3,854.5,799,854.8,799.5,855.4z"/>
	<path class="st7" d="M487.8,858.5c0,1.2-0.2,2.1-0.7,2.7c-0.5,0.5-1.2,0.8-2.2,0.8c-0.8,0-1.3-0.2-1.7-0.6c-0.4-0.4-0.5-1-0.5-1.7
		v-6.2h-1.5v6.3c0,1.2,0.3,2.1,0.9,2.7c0.6,0.5,1.5,0.8,2.6,0.8c0.7,0,1.3-0.1,1.8-0.4c0.5-0.2,0.9-0.6,1.2-1.1h0.1l0.2,1.3h1.2
		v-9.6h-1.5V858.5z"/>
	<path class="st7" d="M475,853.3c-0.6,0-1.1,0.1-1.7,0.2c-0.6,0.1-1.1,0.4-1.5,0.6l0.4,1.1c1-0.5,1.9-0.7,2.7-0.7
		c0.7,0,1.2,0.2,1.6,0.5c0.3,0.4,0.5,0.9,0.5,1.7v0.6l-1.6,0.1c-3.1,0.1-4.6,1.1-4.6,3c0,0.9,0.3,1.6,0.8,2.1
		c0.5,0.5,1.3,0.7,2.2,0.7c0.7,0,1.3-0.1,1.8-0.3c0.5-0.2,1-0.6,1.4-1.2h0.1l0.3,1.4h1.1v-6.5c0-1.1-0.3-1.9-0.8-2.4
		C477,853.5,476.2,853.3,475,853.3z M476.9,859.2c0,0.9-0.3,1.6-0.8,2.1c-0.5,0.5-1.2,0.7-2.1,0.7c-0.6,0-1-0.1-1.3-0.4
		c-0.3-0.3-0.5-0.7-0.5-1.2c0-0.7,0.3-1.2,0.8-1.5c0.5-0.3,1.3-0.5,2.5-0.5l1.5-0.1V859.2z"/>
	<path class="st7" d="M483.6,838.8c1.4,0,2.5-0.4,3.3-1.3c0.8-0.9,1.2-2.1,1.2-3.7c0-1.5-0.4-2.7-1.2-3.6c-0.8-0.9-1.9-1.3-3.2-1.3
		c-1.4,0-2.5,0.4-3.2,1.3c-0.8,0.9-1.2,2.1-1.2,3.7c0,1,0.2,1.9,0.5,2.6c0.4,0.8,0.9,1.3,1.5,1.7C482,838.6,482.8,838.8,483.6,838.8
		z M481.5,831.1c0.5-0.6,1.2-0.9,2.2-0.9c1,0,1.7,0.3,2.2,0.9c0.5,0.6,0.7,1.6,0.7,2.8c0,1.2-0.2,2.2-0.7,2.8c-0.5,0.6-1.2,1-2.2,1
		c-1,0-1.7-0.3-2.2-1c-0.5-0.6-0.7-1.6-0.7-2.8C480.8,832.6,481,831.7,481.5,831.1z"/>
	<rect x="499.7" y="853.4" class="st7" width="1.5" height="9.6"/>
	<path class="st7" d="M588.7,838.8c1.3,0,2.3-0.5,3-1.5h0.1l0.2,1.3h1.2V825h-1.5v3.9l0,0.7l0.1,0.7h-0.1c-0.7-0.9-1.7-1.4-3-1.4
		c-1.2,0-2.2,0.4-2.9,1.3c-0.7,0.9-1,2.1-1,3.7c0,1.6,0.4,2.8,1,3.7C586.5,838.4,587.4,838.8,588.7,838.8z M586.9,831.1
		c0.5-0.7,1.1-1,2-1c1,0,1.7,0.3,2.2,0.9c0.5,0.6,0.7,1.5,0.7,2.9v0.3c0,1.2-0.2,2.1-0.7,2.6c-0.4,0.5-1.2,0.8-2.2,0.8
		c-0.9,0-1.5-0.3-2-0.9c-0.4-0.6-0.7-1.5-0.7-2.8C586.2,832.7,586.4,831.8,586.9,831.1z"/>
	<path class="st7" d="M494.9,830.2c0.3,0,0.7,0,1.1,0.1l0.2-1.4c-0.3-0.1-0.7-0.1-1.1-0.1c-0.6,0-1.2,0.2-1.7,0.5
		c-0.5,0.3-0.9,0.8-1.3,1.4H492l-0.2-1.8h-1.2v9.6h1.5v-5.1c0-0.9,0.3-1.7,0.8-2.4C493.4,830.5,494.1,830.2,494.9,830.2z"/>
	<path class="st7" d="M500.4,849.9c-0.2,0-0.4,0.1-0.6,0.2c-0.2,0.2-0.2,0.4-0.2,0.7c0,0.3,0.1,0.6,0.2,0.7c0.2,0.2,0.4,0.2,0.6,0.2
		c0.2,0,0.4-0.1,0.6-0.2c0.2-0.2,0.3-0.4,0.3-0.7c0-0.3-0.1-0.6-0.3-0.7C500.8,850,500.6,849.9,500.4,849.9z"/>
	<path class="st7" d="M784.3,835.9c0,2,0.9,2.9,2.8,2.9c0.2,0,0.5,0,0.8-0.1c0.3-0.1,0.5-0.1,0.7-0.2v-1.1c-0.1,0-0.3,0.1-0.6,0.1
		c-0.2,0-0.5,0.1-0.7,0.1c-0.5,0-0.9-0.2-1.1-0.5c-0.3-0.3-0.4-0.7-0.4-1.3v-5.6h2.8v-1.1h-2.8v-2.2h-0.8l-0.6,2l-1.4,0.6v0.7h1.4
		V835.9z"/>
	<rect x="528.9" y="829.1" class="st7" width="1.5" height="9.6"/>
	<path class="st7" d="M793.9,838.8c0.7,0,1.3-0.1,1.8-0.4c0.5-0.3,0.9-0.6,1.2-1.1h0.1l0.2,1.3h1.2v-9.6H797v5
		c0,1.2-0.2,2.1-0.7,2.7c-0.5,0.5-1.2,0.8-2.2,0.8c-0.8,0-1.3-0.2-1.7-0.6c-0.4-0.4-0.5-1-0.5-1.7v-6.2h-1.5v6.3
		c0,1.2,0.3,2.1,0.9,2.7C791.8,838.5,792.7,838.8,793.9,838.8z"/>
	<path class="st7" d="M529.7,827.4c0.2,0,0.4-0.1,0.6-0.2c0.2-0.2,0.3-0.4,0.3-0.7s-0.1-0.6-0.3-0.7c-0.2-0.2-0.4-0.2-0.6-0.2
		c-0.2,0-0.4,0.1-0.6,0.2c-0.2,0.2-0.2,0.4-0.2,0.7c0,0.3,0.1,0.6,0.2,0.7C529.2,827.4,529.4,827.4,529.7,827.4z"/>
	<polygon class="st7" points="477.9,837.3 472.2,837.3 472.2,825.9 470.7,825.9 470.7,838.6 477.9,838.6 	"/>
	<path class="st7" d="M461.8,860.8L461.8,860.8l-4.1-10.5h-2.2V863h1.4v-8.1c0-1.2,0-2.3-0.1-3.2h0.1l4.3,11.3h1.2l4.4-11.3h0.1
		c-0.1,1.1-0.1,2.1-0.1,3.1v8.2h1.5v-12.8h-2.2L461.8,860.8z"/>
	<path class="st7" d="M813.1,853.3c-1.4,0-2.5,0.4-3.2,1.3c-0.8,0.9-1.2,2.1-1.2,3.7c0,1,0.2,1.9,0.5,2.6c0.4,0.8,0.9,1.3,1.5,1.7
		c0.7,0.4,1.4,0.6,2.3,0.6c1.4,0,2.5-0.4,3.3-1.3c0.8-0.9,1.2-2.1,1.2-3.7c0-1.5-0.4-2.7-1.2-3.6
		C815.5,853.7,814.5,853.3,813.1,853.3z M815.3,861c-0.5,0.6-1.2,1-2.2,1c-1,0-1.7-0.3-2.2-1c-0.5-0.6-0.7-1.6-0.7-2.8
		c0-1.2,0.2-2.2,0.7-2.8c0.5-0.6,1.2-0.9,2.2-0.9c1,0,1.7,0.3,2.2,1c0.5,0.6,0.7,1.6,0.7,2.8C816,859.5,815.7,860.4,815.3,861z"/>
	<path class="st7" d="M817,828.9c-0.6,0-1.1,0.1-1.7,0.2c-0.6,0.1-1.1,0.3-1.5,0.6l0.4,1.1c1-0.5,1.9-0.7,2.7-0.7
		c0.7,0,1.2,0.2,1.5,0.5c0.3,0.4,0.5,0.9,0.5,1.7v0.6l-1.6,0.1c-3.1,0.1-4.6,1.1-4.6,3c0,0.9,0.3,1.6,0.8,2.1
		c0.5,0.5,1.3,0.7,2.2,0.7c0.7,0,1.3-0.1,1.8-0.3c0.5-0.2,0.9-0.6,1.4-1.2h0.1l0.3,1.4h1.1v-6.5c0-1.1-0.3-1.9-0.8-2.4
		C819,829.2,818.2,828.9,817,828.9z M819,834.8c0,0.9-0.3,1.6-0.8,2.1c-0.5,0.5-1.2,0.7-2.1,0.7c-0.6,0-1-0.1-1.3-0.4
		c-0.3-0.3-0.5-0.7-0.5-1.2c0-0.7,0.3-1.2,0.8-1.5c0.5-0.3,1.3-0.5,2.5-0.5l1.5-0.1V834.8z"/>
	<path class="st7" d="M828,857.6c-0.8-0.3-1.4-0.5-1.7-0.7c-0.3-0.2-0.5-0.3-0.6-0.5c-0.1-0.2-0.2-0.4-0.2-0.7
		c0-0.4,0.2-0.7,0.5-0.9c0.3-0.2,0.9-0.3,1.6-0.3c0.8,0,1.7,0.2,2.6,0.6l0.5-1.2c-1-0.4-2-0.6-3-0.6c-1.1,0-2,0.2-2.6,0.7
		c-0.6,0.5-1,1.1-1,1.9c0,0.4,0.1,0.8,0.3,1.1c0.2,0.3,0.5,0.6,0.8,0.8c0.4,0.2,1,0.5,1.9,0.9c0.9,0.4,1.6,0.7,1.9,0.9
		c0.3,0.3,0.5,0.6,0.5,1c0,0.5-0.2,0.9-0.6,1.1c-0.4,0.2-1,0.4-1.7,0.4c-0.5,0-1-0.1-1.5-0.2c-0.5-0.1-1-0.3-1.5-0.6v1.4
		c0.7,0.4,1.7,0.6,3,0.6c1.2,0,2.1-0.2,2.8-0.7c0.7-0.5,1-1.2,1-2.1c0-0.6-0.2-1.2-0.6-1.6C829.9,858.4,829.1,858,828,857.6z"/>
	<path class="st7" d="M806,885.3c-0.3,0-0.6,0.1-0.8,0.3c-0.2,0.2-0.3,0.5-0.3,0.9c0,0.4,0.1,0.7,0.3,0.9c0.2,0.2,0.4,0.3,0.7,0.3
		c0.3,0,0.6-0.1,0.8-0.3c0.2-0.2,0.3-0.5,0.3-0.9c0-0.4-0.1-0.7-0.3-0.9C806.6,885.4,806.4,885.3,806,885.3z"/>
	<path class="st7" d="M860.6,836c0-0.6-0.2-1.2-0.6-1.6c-0.4-0.4-1.2-0.8-2.3-1.2c-0.8-0.3-1.4-0.5-1.7-0.7
		c-0.3-0.2-0.5-0.3-0.6-0.5c-0.1-0.2-0.2-0.4-0.2-0.7c0-0.4,0.2-0.7,0.5-0.9c0.3-0.2,0.9-0.3,1.6-0.3c0.8,0,1.7,0.2,2.6,0.6l0.5-1.2
		c-1-0.4-2-0.6-3-0.6c-1.1,0-2,0.2-2.6,0.7c-0.6,0.5-1,1.1-1,1.8c0,0.4,0.1,0.8,0.3,1.1c0.2,0.3,0.5,0.6,0.8,0.8
		c0.4,0.2,1,0.5,1.9,0.9c0.9,0.4,1.6,0.7,1.9,0.9c0.3,0.3,0.5,0.6,0.5,1c0,0.5-0.2,0.9-0.6,1.1c-0.4,0.2-1,0.4-1.7,0.4
		c-0.5,0-1-0.1-1.5-0.2c-0.5-0.1-1-0.3-1.5-0.6v1.4c0.7,0.4,1.7,0.6,3,0.6c1.2,0,2.1-0.2,2.8-0.7C860.2,837.6,860.6,836.9,860.6,836
		z"/>
	<path class="st7" d="M836.9,853.3c-1.3,0-2.3,0.5-3.1,1.4c-0.8,0.9-1.1,2.1-1.1,3.7c0,1.5,0.4,2.7,1.2,3.6c0.8,0.9,1.9,1.3,3.3,1.3
		c0.6,0,1.2,0,1.7-0.1c0.5-0.1,0.9-0.3,1.5-0.5v-1.3c-1,0.4-2,0.6-3.1,0.6c-1,0-1.7-0.3-2.3-0.9c-0.5-0.6-0.8-1.4-0.9-2.6h6.6v-0.9
		c0-1.3-0.4-2.3-1-3.1C839,853.7,838.1,853.3,836.9,853.3z M834.2,857.3c0.1-0.9,0.3-1.6,0.8-2.1c0.5-0.5,1.1-0.8,1.8-0.8
		c0.8,0,1.3,0.2,1.8,0.7c0.4,0.5,0.6,1.2,0.6,2.1H834.2z"/>
	<path class="st7" d="M853.7,853.3c-0.7,0-1.3,0.1-1.9,0.4c-0.5,0.3-1,0.7-1.2,1.2h-0.1c-0.5-1.1-1.4-1.6-2.9-1.6
		c-0.6,0-1.2,0.1-1.7,0.4c-0.5,0.3-0.9,0.6-1.2,1.1h-0.1l-0.2-1.3h-1.2v9.6h1.4v-5c0-1.2,0.2-2.1,0.6-2.7c0.4-0.5,1.1-0.8,2-0.8
		c0.7,0,1.2,0.2,1.5,0.6c0.3,0.4,0.5,1,0.5,1.7v6.2h1.4v-5.3c0-1.1,0.2-1.9,0.6-2.4c0.4-0.5,1.1-0.8,2-0.8c0.7,0,1.2,0.2,1.5,0.6
		c0.3,0.4,0.5,1,0.5,1.7v6.2h1.5v-6.3c0-1.2-0.3-2.1-0.8-2.7C855.6,853.5,854.8,853.3,853.7,853.3z"/>
	<path class="st7" d="M846.3,837.5c0.7-0.9,1.1-2.1,1.1-3.7c0-1.6-0.3-2.8-1-3.7c-0.7-0.9-1.7-1.3-2.9-1.3c-0.6,0-1.2,0.1-1.7,0.3
		c-0.5,0.2-0.9,0.6-1.3,1.1h-0.1l-0.2-1.3h-1.2v13.9h1.4V839c0-0.5,0-1-0.1-1.6h0.1c0.3,0.5,0.8,0.8,1.3,1.1
		c0.5,0.2,1.1,0.3,1.7,0.3C844.6,838.8,845.6,838.4,846.3,837.5z M841,836.7c-0.4-0.6-0.7-1.5-0.7-2.9v-0.3c0-1.2,0.2-2,0.7-2.6
		c0.4-0.5,1.1-0.8,2.1-0.8c0.9,0,1.5,0.3,2,1c0.5,0.6,0.7,1.6,0.7,2.7c0,1.2-0.2,2.1-0.7,2.8c-0.5,0.7-1.1,1-1.9,1
		C842.2,837.6,841.5,837.3,841,836.7z"/>
	<path class="st7" d="M829.8,828.9l0,0.7l0.1,0.7h-0.1c-0.7-0.9-1.7-1.4-3-1.4c-1.2,0-2.2,0.4-2.9,1.3c-0.7,0.9-1,2.1-1,3.7
		c0,1.6,0.3,2.8,1,3.7c0.7,0.9,1.7,1.3,2.9,1.3c1.3,0,2.3-0.5,3-1.5h0.1l0.2,1.3h1.2V825h-1.4V828.9z M829.8,834.2
		c0,1.2-0.2,2.1-0.7,2.6c-0.4,0.5-1.2,0.8-2.2,0.8c-0.9,0-1.5-0.3-2-0.9c-0.5-0.6-0.7-1.5-0.7-2.8c0-1.2,0.2-2.1,0.7-2.8
		c0.5-0.7,1.1-1,2-1c1,0,1.7,0.3,2.2,0.9c0.5,0.6,0.7,1.5,0.7,2.9V834.2z"/>
	<path class="st7" d="M805.4,851.8c0.2,0,0.4-0.1,0.6-0.2c0.2-0.2,0.3-0.4,0.3-0.7c0-0.3-0.1-0.6-0.3-0.7c-0.2-0.2-0.4-0.2-0.6-0.2
		c-0.2,0-0.4,0.1-0.6,0.2c-0.2,0.2-0.2,0.4-0.2,0.7c0,0.3,0.1,0.6,0.2,0.7C805,851.7,805.2,851.8,805.4,851.8z"/>
	<rect x="804.7" y="853.4" class="st7" width="1.5" height="9.6"/>
	<path class="st7" d="M767.9,835.9c0,2,0.9,2.9,2.8,2.9c0.2,0,0.5,0,0.8-0.1c0.3-0.1,0.5-0.1,0.7-0.2v-1.1c-0.1,0-0.3,0.1-0.6,0.1
		c-0.2,0-0.5,0.1-0.7,0.1c-0.5,0-0.9-0.2-1.1-0.5c-0.3-0.3-0.4-0.7-0.4-1.3v-5.6h2.8v-1.1h-2.8v-2.2h-0.8l-0.6,2l-1.4,0.6v0.7h1.4
		V835.9z"/>
	<path class="st7" d="M770.7,863.2c1.3,0,2.3-0.5,3-1.5h0.1l0.2,1.3h1.2v-13.6h-1.5v3.9l0,0.7l0.1,0.7h-0.1c-0.7-0.9-1.7-1.4-3-1.4
		c-1.2,0-2.2,0.4-2.9,1.3c-0.7,0.9-1,2.1-1,3.7c0,1.6,0.3,2.8,1,3.7C768.5,862.8,769.5,863.2,770.7,863.2z M768.9,855.5
		c0.5-0.7,1.1-1,2-1c1,0,1.7,0.3,2.2,0.9c0.5,0.6,0.7,1.6,0.7,2.9v0.3c0,1.2-0.2,2.1-0.7,2.6c-0.4,0.5-1.2,0.8-2.2,0.8
		c-0.9,0-1.5-0.3-2-0.9c-0.4-0.6-0.7-1.5-0.7-2.8C768.3,857.1,768.5,856.1,768.9,855.5z"/>
	<path class="st7" d="M763.2,830.2c0.3,0,0.6,0,1,0.1c0.4,0.1,0.7,0.2,1,0.3l0.4-1.2c-0.3-0.1-0.6-0.3-1.1-0.4
		c-0.5-0.1-0.9-0.2-1.4-0.2c-1.4,0-2.5,0.4-3.3,1.3c-0.8,0.9-1.2,2.1-1.2,3.7c0,1.6,0.4,2.8,1.1,3.6c0.8,0.9,1.8,1.3,3.2,1.3
		c1,0,1.8-0.2,2.4-0.5V837c-0.8,0.3-1.7,0.5-2.5,0.5c-0.9,0-1.6-0.3-2.1-0.9c-0.5-0.6-0.7-1.5-0.7-2.7
		C760.3,831.4,761.2,830.2,763.2,830.2z"/>
	<path class="st7" d="M774.1,882.9c0,1.2-0.2,2.1-0.7,2.7c-0.5,0.5-1.2,0.8-2.2,0.8c-0.8,0-1.3-0.2-1.7-0.6c-0.4-0.4-0.5-1-0.5-1.7
		v-6.2h-1.5v6.3c0,1.2,0.3,2.1,0.9,2.7c0.6,0.6,1.5,0.8,2.6,0.8c0.7,0,1.3-0.1,1.8-0.4c0.5-0.3,0.9-0.6,1.2-1.1h0.1l0.2,1.3h1.2
		v-9.6h-1.5V882.9z"/>
	<path class="st7" d="M799,877.6c-0.7,0-1.3,0.1-1.9,0.4c-0.5,0.3-1,0.7-1.2,1.2h-0.1c-0.5-1.1-1.4-1.6-2.9-1.6
		c-0.6,0-1.2,0.1-1.7,0.4c-0.5,0.3-0.9,0.6-1.2,1.1H790l-0.2-1.3h-1.2v9.6h1.5v-5c0-1.2,0.2-2.1,0.6-2.7c0.4-0.5,1.1-0.8,2-0.8
		c0.7,0,1.2,0.2,1.5,0.6c0.3,0.4,0.5,1,0.5,1.7v6.2h1.5v-5.4c0-1.1,0.2-1.9,0.6-2.4c0.4-0.5,1.1-0.8,2-0.8c0.7,0,1.2,0.2,1.5,0.6
		c0.3,0.4,0.5,1,0.5,1.7v6.2h1.5v-6.3c0-1.2-0.3-2.1-0.8-2.7C800.9,877.9,800.1,877.6,799,877.6z"/>
	<path class="st7" d="M782.2,877.7c-0.6,0-1.1,0.1-1.7,0.2c-0.6,0.1-1.1,0.3-1.5,0.6l0.4,1.1c1-0.5,1.9-0.7,2.7-0.7
		c0.7,0,1.2,0.2,1.5,0.5c0.3,0.4,0.5,0.9,0.5,1.7v0.6l-1.6,0.1c-3.1,0.1-4.6,1.1-4.6,3c0,0.9,0.3,1.6,0.8,2.1
		c0.5,0.5,1.3,0.7,2.2,0.7c0.7,0,1.3-0.1,1.8-0.3c0.5-0.2,0.9-0.6,1.4-1.2h0.1l0.3,1.4h1.1v-6.5c0-1.1-0.3-1.9-0.8-2.4
		C784.2,877.9,783.4,877.7,782.2,877.7z M784.1,883.6c0,0.9-0.3,1.6-0.8,2.1c-0.5,0.5-1.2,0.7-2.1,0.7c-0.6,0-1-0.1-1.3-0.4
		c-0.3-0.3-0.5-0.7-0.5-1.2c0-0.7,0.3-1.2,0.8-1.5c0.5-0.3,1.3-0.5,2.5-0.5l1.5-0.1V883.6z"/>
	<path class="st7" d="M806.8,830.3l0.2-1.4c-0.3-0.1-0.7-0.1-1.1-0.1c-0.6,0-1.2,0.2-1.7,0.5c-0.5,0.3-0.9,0.8-1.3,1.4h-0.1
		l-0.2-1.8h-1.2v9.6h1.5v-5.1c0-0.9,0.3-1.7,0.8-2.4c0.5-0.6,1.2-0.9,2-0.9C806,830.2,806.4,830.3,806.8,830.3z"/>
	<path class="st7" d="M791.2,858.2c0-1.5-0.4-2.7-1.2-3.6c-0.8-0.9-1.9-1.3-3.2-1.3c-1.4,0-2.5,0.4-3.2,1.3
		c-0.8,0.9-1.2,2.1-1.2,3.7c0,1,0.2,1.9,0.5,2.6c0.4,0.8,0.9,1.3,1.5,1.7c0.7,0.4,1.4,0.6,2.3,0.6c1.4,0,2.5-0.4,3.3-1.3
		C790.8,861,791.2,859.8,791.2,858.2z M788.9,861c-0.5,0.6-1.2,1-2.2,1c-1,0-1.7-0.3-2.2-1c-0.5-0.6-0.7-1.6-0.7-2.8
		c0-1.2,0.2-2.2,0.7-2.8c0.5-0.6,1.2-0.9,2.2-0.9c1,0,1.7,0.3,2.2,1c0.5,0.6,0.7,1.6,0.7,2.8C789.7,859.5,789.4,860.4,788.9,861z"/>
	<path class="st7" d="M883.7,853.8c-0.5,0.3-0.9,0.8-1.3,1.4h-0.1l-0.2-1.8h-1.2v9.6h1.5v-5.1c0-0.9,0.3-1.7,0.8-2.4
		c0.6-0.6,1.2-0.9,2-0.9c0.3,0,0.7,0,1,0.1l0.2-1.4c-0.3-0.1-0.7-0.1-1.1-0.1C884.7,853.3,884.2,853.4,883.7,853.8z"/>
	<rect x="929.3" y="849.4" class="st7" width="1.4" height="13.6"/>
	<path class="st7" d="M917.8,853.3c-1.4,0-2.5,0.4-3.3,1.3c-0.8,0.9-1.2,2.1-1.2,3.7c0,1,0.2,1.9,0.5,2.6c0.4,0.8,0.9,1.3,1.5,1.7
		c0.7,0.4,1.4,0.6,2.3,0.6c1.4,0,2.5-0.4,3.3-1.3c0.8-0.9,1.2-2.1,1.2-3.7c0-1.5-0.4-2.7-1.2-3.6
		C920.2,853.7,919.2,853.3,917.8,853.3z M920,861c-0.5,0.6-1.2,1-2.2,1c-1,0-1.7-0.3-2.2-1c-0.5-0.6-0.7-1.6-0.7-2.8
		c0-1.2,0.2-2.2,0.7-2.8c0.5-0.6,1.2-0.9,2.2-0.9c1,0,1.7,0.3,2.2,1c0.5,0.6,0.7,1.6,0.7,2.8C920.7,859.5,920.5,860.4,920,861z"/>
	<path class="st7" d="M927.7,836.5c-0.3,0-0.6,0.1-0.8,0.3c-0.2,0.2-0.3,0.5-0.3,0.9c0,0.4,0.1,0.7,0.3,0.9c0.2,0.2,0.4,0.3,0.7,0.3
		c0.3,0,0.6-0.1,0.8-0.3c0.2-0.2,0.3-0.5,0.3-0.9c0-0.4-0.1-0.7-0.3-0.9C928.3,836.6,928,836.5,927.7,836.5z"/>
	<path class="st7" d="M924.9,837.5c-0.1,0-0.3,0.1-0.6,0.1c-0.2,0-0.5,0.1-0.7,0.1c-0.5,0-0.9-0.2-1.1-0.5c-0.3-0.3-0.4-0.7-0.4-1.3
		v-5.6h2.8v-1.1h-2.8v-2.2h-0.8l-0.6,2l-1.4,0.6v0.7h1.4v5.7c0,2,0.9,2.9,2.8,2.9c0.2,0,0.5,0,0.8-0.1c0.3-0.1,0.5-0.1,0.7-0.2
		V837.5z"/>
	<rect x="924.8" y="849.4" class="st7" width="1.4" height="13.6"/>
	<path class="st7" d="M941.6,857.6c-0.8-0.3-1.4-0.5-1.7-0.7c-0.3-0.2-0.5-0.3-0.6-0.5c-0.1-0.2-0.2-0.4-0.2-0.7
		c0-0.4,0.2-0.7,0.5-0.9c0.3-0.2,0.9-0.3,1.6-0.3c0.8,0,1.6,0.2,2.6,0.6l0.5-1.2c-1-0.4-2-0.6-3-0.6c-1.1,0-2,0.2-2.6,0.7
		c-0.6,0.5-1,1.1-1,1.9c0,0.4,0.1,0.8,0.3,1.1c0.2,0.3,0.5,0.6,0.8,0.8c0.4,0.2,1,0.5,1.9,0.9c0.9,0.4,1.6,0.7,1.9,0.9
		c0.3,0.3,0.5,0.6,0.5,1c0,0.5-0.2,0.9-0.6,1.1c-0.4,0.2-1,0.4-1.7,0.4c-0.5,0-1-0.1-1.5-0.2c-0.5-0.1-1-0.3-1.5-0.6v1.4
		c0.7,0.4,1.7,0.6,3,0.6c1.2,0,2.1-0.2,2.8-0.7c0.7-0.5,1-1.2,1-2.1c0-0.6-0.2-1.2-0.6-1.6C943.5,858.4,942.8,858,941.6,857.6z"/>
	<rect x="933.8" y="853.4" class="st7" width="1.5" height="9.6"/>
	<path class="st7" d="M934.5,849.9c-0.2,0-0.4,0.1-0.6,0.2c-0.2,0.2-0.2,0.4-0.2,0.7c0,0.3,0.1,0.6,0.2,0.7c0.2,0.2,0.4,0.2,0.6,0.2
		c0.2,0,0.4-0.1,0.6-0.2c0.2-0.2,0.3-0.4,0.3-0.7c0-0.3-0.1-0.6-0.3-0.7C935,850,934.8,849.9,934.5,849.9z"/>
	<path class="st7" d="M882.5,832.4v6.2h1.4v-6.3c0-1.2-0.3-2.1-0.9-2.7c-0.6-0.6-1.4-0.8-2.6-0.8c-0.7,0-1.3,0.1-1.8,0.4
		c-0.5,0.3-1,0.6-1.3,1.1h-0.1l-0.2-1.3H876v9.6h1.5v-5c0-1.2,0.2-2.1,0.7-2.7c0.5-0.5,1.2-0.8,2.2-0.8c0.8,0,1.3,0.2,1.7,0.6
		C882.4,831.1,882.5,831.7,882.5,832.4z"/>
	<path class="st7" d="M864.4,853.3c-0.6,0-1.2,0.1-1.7,0.3c-0.5,0.2-0.9,0.6-1.3,1.1h-0.1l-0.2-1.3h-1.2v13.9h1.5v-3.9
		c0-0.5,0-1-0.1-1.6h0.1c0.3,0.5,0.8,0.8,1.3,1.1c0.5,0.2,1.1,0.3,1.7,0.3c1.2,0,2.2-0.4,2.9-1.3c0.7-0.9,1.1-2.1,1.1-3.7
		c0-1.6-0.3-2.8-1-3.7C866.6,853.7,865.7,853.3,864.4,853.3z M866.2,861c-0.5,0.7-1.1,1-1.9,1c-1,0-1.7-0.3-2.2-0.9
		c-0.5-0.6-0.7-1.5-0.7-2.9v-0.3c0-1.2,0.2-2,0.7-2.6c0.4-0.5,1.1-0.8,2.1-0.8c0.9,0,1.5,0.3,2,1c0.5,0.6,0.7,1.6,0.7,2.7
		C866.9,859.4,866.6,860.3,866.2,861z"/>
	<rect x="911.5" y="825" class="st7" width="1.5" height="13.6"/>
	<path class="st7" d="M760.9,853.3c-1.3,0-2.3,0.5-3.1,1.4c-0.8,0.9-1.1,2.1-1.1,3.7c0,1.5,0.4,2.7,1.2,3.6c0.8,0.9,1.9,1.3,3.4,1.3
		c0.6,0,1.2,0,1.7-0.1c0.5-0.1,0.9-0.3,1.5-0.5v-1.3c-1,0.4-2,0.6-3.1,0.6c-1,0-1.7-0.3-2.3-0.9c-0.5-0.6-0.8-1.4-0.8-2.6h6.6v-0.9
		c0-1.3-0.3-2.3-1-3.1C763.1,853.7,762.1,853.3,760.9,853.3z M758.3,857.3c0.1-0.9,0.4-1.6,0.8-2.1c0.5-0.5,1.1-0.8,1.8-0.8
		c0.8,0,1.3,0.2,1.7,0.7c0.4,0.5,0.6,1.2,0.6,2.1H758.3z"/>
	<path class="st7" d="M866.8,830.2c0.3,0,0.6,0,1,0.1c0.4,0.1,0.7,0.2,1,0.3l0.4-1.2c-0.3-0.1-0.6-0.3-1.1-0.4
		c-0.5-0.1-0.9-0.2-1.4-0.2c-1.4,0-2.5,0.4-3.3,1.3c-0.8,0.9-1.2,2.1-1.2,3.7c0,1.6,0.4,2.8,1.1,3.6c0.8,0.9,1.8,1.3,3.2,1.3
		c1,0,1.8-0.2,2.4-0.5V837c-0.8,0.3-1.7,0.5-2.5,0.5c-0.9,0-1.6-0.3-2.1-0.9c-0.5-0.6-0.7-1.5-0.7-2.7
		C863.9,831.4,864.9,830.2,866.8,830.2z"/>
	<path class="st7" d="M874.6,853.3c-1.3,0-2.3,0.5-3.1,1.4c-0.8,0.9-1.1,2.1-1.1,3.7c0,1.5,0.4,2.7,1.2,3.6c0.8,0.9,1.9,1.3,3.4,1.3
		c0.6,0,1.2,0,1.7-0.1c0.5-0.1,0.9-0.3,1.5-0.5v-1.3c-1,0.4-2,0.6-3.1,0.6c-1,0-1.7-0.3-2.3-0.9c-0.5-0.6-0.8-1.4-0.9-2.6h6.6v-0.9
		c0-1.3-0.4-2.3-1.1-3.1C876.7,853.7,875.8,853.3,874.6,853.3z M871.9,857.3c0.1-0.9,0.3-1.6,0.8-2.1c0.5-0.5,1.1-0.8,1.8-0.8
		c0.8,0,1.3,0.2,1.8,0.7c0.4,0.5,0.6,1.2,0.6,2.1H871.9z"/>
	<path class="st7" d="M888.2,860.9c-0.1,0.5-0.2,1.3-0.4,2.1c-0.2,0.9-0.4,1.6-0.5,2.2h1.1c0.3-0.7,0.6-1.4,0.9-2.2
		c0.3-0.8,0.5-1.4,0.7-2l-0.1-0.2H888.2z"/>
	<path class="st7" d="M907.7,853.3c-0.7,0-1.3,0.1-1.9,0.4c-0.5,0.3-1,0.7-1.2,1.2h-0.1c-0.5-1.1-1.4-1.6-2.9-1.6
		c-0.6,0-1.2,0.1-1.7,0.4c-0.5,0.3-0.9,0.6-1.2,1.1h-0.1l-0.2-1.3h-1.2v9.6h1.5v-5c0-1.2,0.2-2.1,0.6-2.7c0.4-0.5,1.1-0.8,2-0.8
		c0.7,0,1.2,0.2,1.5,0.6c0.3,0.4,0.5,1,0.5,1.7v6.2h1.4v-5.3c0-1.1,0.2-1.9,0.6-2.4c0.4-0.5,1.1-0.8,2-0.8c0.7,0,1.2,0.2,1.5,0.6
		c0.3,0.4,0.5,1,0.5,1.7v6.2h1.5v-6.3c0-1.2-0.3-2.1-0.8-2.7C909.6,853.5,908.8,853.3,907.7,853.3z"/>
	<path class="st7" d="M890.2,828.9c-1.2,0-2,0.3-2.7,0.9c-0.6,0.6-0.9,1.4-0.9,2.4c0,0.6,0.2,1.2,0.5,1.7c0.3,0.5,0.7,0.8,1.2,1
		c-0.4,0.2-0.7,0.5-0.9,0.8c-0.2,0.3-0.3,0.6-0.3,0.9c0,0.3,0.1,0.6,0.2,0.8c0.2,0.2,0.4,0.4,0.6,0.5c-0.7,0.2-1.2,0.4-1.6,0.9
		c-0.4,0.4-0.6,0.9-0.6,1.5c0,0.8,0.3,1.5,1,2c0.7,0.5,1.6,0.7,2.9,0.7c1.6,0,2.9-0.3,3.7-0.8c0.8-0.6,1.3-1.4,1.3-2.4
		c0-0.8-0.3-1.5-0.8-1.9c-0.6-0.4-1.4-0.7-2.4-0.7h-1.7c-0.5,0-0.9-0.1-1.1-0.2c-0.2-0.1-0.3-0.3-0.3-0.6c0-0.5,0.3-0.9,0.9-1.2
		c0.3,0,0.5,0.1,0.8,0.1c1.1,0,2-0.3,2.6-0.8c0.6-0.6,1-1.3,1-2.2c0-0.4-0.1-0.8-0.2-1.1c-0.1-0.3-0.3-0.6-0.4-0.8l1.8-0.2v-0.9
		h-3.3C891.1,829,890.7,828.9,890.2,828.9z M889.3,838.4h1.7c0.9,0,1.5,0.1,1.8,0.3c0.3,0.2,0.5,0.6,0.5,1.1c0,0.6-0.3,1.1-0.9,1.5
		c-0.6,0.4-1.5,0.5-2.7,0.5c-0.8,0-1.4-0.1-1.9-0.4c-0.4-0.3-0.7-0.7-0.7-1.2c0-0.6,0.2-1,0.6-1.4
		C888.1,838.6,888.6,838.4,889.3,838.4z M892.2,832.1c0,1.4-0.7,2.1-2.1,2.1c-0.7,0-1.2-0.2-1.6-0.5c-0.4-0.3-0.6-0.9-0.6-1.5
		c0-0.7,0.2-1.3,0.5-1.6c0.4-0.4,0.9-0.5,1.6-0.5C891.5,829.9,892.2,830.7,892.2,832.1z"/>
	<path class="st7" d="M721.1,886.4c-0.5,0-0.9-0.2-1.1-0.5c-0.3-0.3-0.4-0.8-0.4-1.3V879h2.8v-1.1h-2.8v-2.2h-0.8l-0.6,2l-1.4,0.6
		v0.7h1.4v5.7c0,2,0.9,2.9,2.8,2.9c0.2,0,0.5,0,0.8-0.1c0.3-0.1,0.5-0.1,0.7-0.2v-1.1c-0.1,0-0.3,0.1-0.6,0.1
		C721.6,886.4,721.4,886.4,721.1,886.4z"/>
	<path class="st7" d="M639.9,863.2c0.6,0,1.2,0,1.7-0.1c0.5-0.1,0.9-0.3,1.5-0.5v-1.3c-1,0.4-2,0.6-3.1,0.6c-1,0-1.7-0.3-2.3-0.9
		c-0.5-0.6-0.8-1.4-0.8-2.6h6.6v-0.9c0-1.3-0.4-2.3-1-3.1c-0.7-0.8-1.6-1.2-2.8-1.2c-1.3,0-2.3,0.5-3.1,1.4
		c-0.8,0.9-1.1,2.1-1.1,3.7c0,1.5,0.4,2.7,1.2,3.6C637.4,862.8,638.5,863.2,639.9,863.2z M637.7,855.2c0.5-0.5,1.1-0.8,1.8-0.8
		c0.8,0,1.3,0.2,1.7,0.7c0.4,0.5,0.6,1.2,0.6,2.1h-5C637,856.4,637.2,855.7,637.7,855.2z"/>
	<rect x="642.9" y="829.1" class="st7" width="1.4" height="9.6"/>
	<path class="st7" d="M640.2,877.6c-0.7,0-1.3,0.1-1.8,0.4c-0.5,0.3-1,0.6-1.3,1.1h-0.1l-0.2-1.3h-1.2v9.6h1.5v-5
		c0-1.2,0.2-2.1,0.7-2.7c0.5-0.5,1.2-0.8,2.2-0.8c0.8,0,1.3,0.2,1.7,0.6c0.4,0.4,0.5,1,0.5,1.8v6.2h1.4v-6.3c0-1.2-0.3-2.1-0.9-2.7
		C642.3,877.9,641.4,877.6,640.2,877.6z"/>
	<path class="st7" d="M638.5,837.3c-0.4,0.2-1,0.4-1.7,0.4c-0.5,0-1-0.1-1.5-0.2c-0.5-0.1-1-0.3-1.5-0.6v1.4c0.7,0.4,1.7,0.6,3,0.6
		c1.2,0,2.1-0.2,2.8-0.7c0.7-0.5,1-1.2,1-2.1c0-0.6-0.2-1.2-0.6-1.6c-0.4-0.4-1.2-0.8-2.3-1.2c-0.8-0.3-1.4-0.5-1.7-0.7
		c-0.3-0.2-0.5-0.3-0.6-0.5c-0.1-0.2-0.2-0.4-0.2-0.7c0-0.4,0.2-0.7,0.5-0.9c0.4-0.2,0.9-0.3,1.6-0.3c0.8,0,1.7,0.2,2.6,0.6l0.5-1.2
		c-1-0.4-2-0.6-3-0.6c-1.1,0-2,0.2-2.6,0.7c-0.6,0.5-1,1.1-1,1.8c0,0.4,0.1,0.8,0.3,1.1c0.2,0.3,0.5,0.6,0.8,0.8
		c0.4,0.2,1,0.5,1.9,0.9c0.9,0.4,1.6,0.7,1.9,0.9c0.3,0.3,0.5,0.6,0.5,1C639.1,836.7,638.9,837,638.5,837.3z"/>
	<path class="st7" d="M648.6,853.8c-0.5,0.3-0.9,0.8-1.3,1.4h-0.1l-0.2-1.8h-1.2v9.6h1.5v-5.1c0-0.9,0.3-1.7,0.8-2.4
		c0.6-0.6,1.2-0.9,2-0.9c0.3,0,0.7,0,1,0.1l0.2-1.4c-0.3-0.1-0.7-0.1-1.1-0.1C649.7,853.3,649.1,853.4,648.6,853.8z"/>
	<path class="st7" d="M659.4,877.6c-1.3,0-2.3,0.5-3.1,1.4c-0.8,0.9-1.1,2.1-1.1,3.7c0,1.5,0.4,2.7,1.2,3.6c0.8,0.9,1.9,1.3,3.4,1.3
		c0.6,0,1.2,0,1.7-0.1c0.5-0.1,0.9-0.3,1.5-0.5v-1.3c-1,0.4-2,0.6-3.1,0.6c-1,0-1.7-0.3-2.3-0.9c-0.5-0.6-0.8-1.4-0.9-2.6h6.6V882
		c0-1.3-0.3-2.3-1-3.1C661.6,878,660.6,877.6,659.4,877.6z M656.8,881.7c0.1-0.9,0.3-1.6,0.8-2.1c0.5-0.5,1.1-0.7,1.8-0.7
		c0.8,0,1.3,0.2,1.8,0.7c0.4,0.5,0.6,1.2,0.6,2.1H656.8z"/>
	<path class="st7" d="M629.4,853.3c-0.6,0-1.2,0.1-1.7,0.3c-0.5,0.2-0.9,0.6-1.3,1.1h-0.1l-0.2-1.3h-1.2v13.9h1.5v-3.9
		c0-0.5,0-1-0.1-1.6h0.1c0.4,0.5,0.8,0.8,1.3,1.1c0.5,0.2,1.1,0.3,1.7,0.3c1.3,0,2.2-0.4,2.9-1.3c0.7-0.9,1.1-2.1,1.1-3.7
		c0-1.6-0.3-2.8-1-3.7C631.6,853.7,630.6,853.3,629.4,853.3z M631.1,861c-0.5,0.7-1.1,1-1.9,1c-1,0-1.7-0.3-2.2-0.9
		c-0.4-0.6-0.7-1.5-0.7-2.9v-0.3c0-1.2,0.2-2,0.7-2.6c0.4-0.5,1.1-0.8,2.1-0.8c0.9,0,1.5,0.3,2,1c0.5,0.6,0.7,1.6,0.7,2.7
		C631.8,859.4,631.6,860.3,631.1,861z"/>
	<path class="st7" d="M650.5,837.6c-0.5,0-0.9-0.2-1.1-0.5c-0.3-0.3-0.4-0.7-0.4-1.3v-5.6h2.8v-1.1H649v-2.2h-0.8l-0.6,2l-1.4,0.6
		v0.7h1.4v5.7c0,2,0.9,2.9,2.8,2.9c0.2,0,0.5,0,0.8-0.1c0.3-0.1,0.5-0.1,0.7-0.2v-1.1c-0.1,0-0.3,0.1-0.6,0.1
		C651,837.6,650.8,837.6,650.5,837.6z"/>
	<path class="st7" d="M646.6,885.3c-0.1,0.5-0.2,1.2-0.4,2.1c-0.2,0.9-0.4,1.6-0.5,2.2h1.1c0.3-0.7,0.6-1.4,0.9-2.2
		c0.3-0.8,0.5-1.4,0.7-2l-0.1-0.2H646.6z"/>
	<path class="st7" d="M643.6,825.5c-0.2,0-0.4,0.1-0.6,0.2c-0.2,0.2-0.2,0.4-0.2,0.7c0,0.3,0.1,0.6,0.2,0.7c0.2,0.2,0.4,0.2,0.6,0.2
		c0.2,0,0.4-0.1,0.6-0.2c0.2-0.2,0.3-0.4,0.3-0.7s-0.1-0.6-0.3-0.7C644,825.6,643.8,825.5,643.6,825.5z"/>
	<rect x="615.7" y="877.8" class="st7" width="1.5" height="9.6"/>
	<path class="st7" d="M616.4,874.3c-0.2,0-0.4,0.1-0.6,0.2c-0.2,0.2-0.2,0.4-0.2,0.7c0,0.3,0.1,0.6,0.2,0.7c0.2,0.2,0.4,0.2,0.6,0.2
		c0.2,0,0.4-0.1,0.6-0.2c0.2-0.2,0.3-0.4,0.3-0.7c0-0.3-0.1-0.6-0.3-0.7C616.9,874.3,616.7,874.3,616.4,874.3z"/>
	<path class="st7" d="M619.8,833.8c0-1.5-0.4-2.7-1.2-3.6c-0.8-0.9-1.9-1.3-3.2-1.3c-1.4,0-2.5,0.4-3.2,1.3
		c-0.8,0.9-1.2,2.1-1.2,3.7c0,1,0.2,1.9,0.5,2.6c0.4,0.8,0.9,1.3,1.5,1.7c0.7,0.4,1.4,0.6,2.3,0.6c1.4,0,2.5-0.4,3.3-1.3
		C619.4,836.6,619.8,835.4,619.8,833.8z M617.6,836.7c-0.5,0.6-1.2,1-2.2,1c-1,0-1.7-0.3-2.2-1c-0.5-0.6-0.7-1.6-0.7-2.8
		c0-1.2,0.2-2.2,0.7-2.8c0.5-0.6,1.2-0.9,2.2-0.9c1,0,1.7,0.3,2.2,0.9c0.5,0.6,0.7,1.6,0.7,2.8C618.3,835.1,618.1,836,617.6,836.7z"
		/>
	<path class="st7" d="M619,857.9c0-0.9,0.3-1.7,0.8-2.4c0.6-0.6,1.2-0.9,2-0.9c0.3,0,0.7,0,1,0.1l0.2-1.4c-0.3-0.1-0.7-0.1-1.1-0.1
		c-0.6,0-1.1,0.2-1.7,0.5c-0.5,0.3-0.9,0.8-1.3,1.4H619l-0.2-1.8h-1.2v9.6h1.5V857.9z"/>
	<path class="st7" d="M623.3,886.4c-0.5,0-0.9-0.2-1.1-0.5c-0.3-0.3-0.4-0.8-0.4-1.3V879h2.8v-1.1h-2.8v-2.2h-0.8l-0.6,2l-1.4,0.6
		v0.7h1.4v5.7c0,2,0.9,2.9,2.8,2.9c0.2,0,0.5,0,0.8-0.1c0.3-0.1,0.5-0.1,0.7-0.2v-1.1c-0.1,0-0.3,0.1-0.6,0.1
		C623.8,886.4,623.6,886.4,623.3,886.4z"/>
	<path class="st7" d="M631.9,874.3c-0.2,0-0.4,0.1-0.6,0.2c-0.2,0.2-0.2,0.4-0.2,0.7c0,0.3,0.1,0.6,0.2,0.7c0.2,0.2,0.4,0.2,0.6,0.2
		c0.2,0,0.4-0.1,0.6-0.2c0.2-0.2,0.3-0.4,0.3-0.7c0-0.3-0.1-0.6-0.3-0.7C632.4,874.3,632.2,874.3,631.9,874.3z"/>
	<rect x="631.2" y="877.8" class="st7" width="1.5" height="9.6"/>
	<path class="st7" d="M627.7,830.3l0.2-1.4c-0.3-0.1-0.7-0.1-1.1-0.1c-0.6,0-1.2,0.2-1.7,0.5c-0.5,0.3-0.9,0.8-1.3,1.4h-0.1
		l-0.2-1.8h-1.2v9.6h1.5v-5.1c0-0.9,0.3-1.7,0.8-2.4c0.6-0.6,1.2-0.9,2-0.9C626.9,830.2,627.3,830.3,627.7,830.3z"/>
	<path class="st7" d="M763.2,879.1L763.2,879.1c-0.8-1-1.8-1.5-3.1-1.5c-1.2,0-2.2,0.4-2.9,1.3c-0.7,0.9-1,2.1-1,3.7
		c0,1.6,0.3,2.8,1,3.6c0.7,0.9,1.7,1.3,2.9,1.3c1.3,0,2.4-0.5,3-1.5h0.1c-0.1,0.4-0.1,0.9-0.1,1.5v4.1h1.4v-13.9h-1.1L763.2,879.1z
		 M763.1,883c0,1.2-0.3,2.1-0.7,2.6c-0.4,0.5-1.1,0.8-2.1,0.8c-0.9,0-1.5-0.3-2-0.9c-0.4-0.6-0.7-1.6-0.7-2.8c0-1.2,0.2-2.1,0.7-2.8
		c0.5-0.7,1.1-1,2-1c1,0,1.7,0.3,2.2,0.9c0.5,0.6,0.7,1.6,0.7,2.9V883z"/>
	<path class="st7" d="M730.8,882.9c0,1.2-0.2,2.1-0.7,2.7c-0.5,0.5-1.2,0.8-2.2,0.8c-0.8,0-1.3-0.2-1.7-0.6c-0.4-0.4-0.5-1-0.5-1.7
		v-6.2h-1.5v6.3c0,1.2,0.3,2.1,0.9,2.7c0.6,0.6,1.5,0.8,2.6,0.8c0.7,0,1.3-0.1,1.8-0.4c0.5-0.3,0.9-0.6,1.2-1.1h0.1l0.2,1.3h1.2
		v-9.6h-1.4V882.9z"/>
	<path class="st7" d="M610.7,853.3c-1.4,0-2.5,0.4-3.2,1.3c-0.8,0.9-1.2,2.1-1.2,3.7c0,1,0.2,1.9,0.5,2.6c0.4,0.8,0.9,1.3,1.5,1.7
		c0.7,0.4,1.4,0.6,2.3,0.6c1.4,0,2.5-0.4,3.3-1.3c0.8-0.9,1.2-2.1,1.2-3.7c0-1.5-0.4-2.7-1.2-3.6C613.1,853.7,612,853.3,610.7,853.3
		z M612.8,861c-0.5,0.6-1.2,1-2.2,1c-1,0-1.7-0.3-2.2-1c-0.5-0.6-0.7-1.6-0.7-2.8c0-1.2,0.2-2.2,0.7-2.8c0.5-0.6,1.2-0.9,2.2-0.9
		c1,0,1.7,0.3,2.2,1c0.5,0.6,0.7,1.6,0.7,2.8C613.5,859.5,613.3,860.4,612.8,861z"/>
	<path class="st7" d="M738.2,862.9c0.5-0.2,0.9-0.6,1.4-1.2h0.1l0.3,1.4h1.1v-6.5c0-1.1-0.3-1.9-0.8-2.4c-0.6-0.5-1.4-0.8-2.5-0.8
		c-0.6,0-1.1,0.1-1.7,0.2c-0.6,0.1-1.1,0.4-1.5,0.6l0.4,1.1c1-0.5,1.9-0.7,2.7-0.7c0.7,0,1.2,0.2,1.5,0.5c0.3,0.4,0.5,0.9,0.5,1.7
		v0.6l-1.6,0.1c-3.1,0.1-4.6,1.1-4.6,3c0,0.9,0.3,1.6,0.8,2.1c0.5,0.5,1.3,0.7,2.2,0.7C737.1,863.2,737.7,863.1,738.2,862.9z
		 M734.9,860.4c0-0.7,0.3-1.2,0.8-1.5c0.5-0.3,1.3-0.5,2.5-0.5l1.5-0.1v0.9c0,0.9-0.3,1.6-0.8,2.1c-0.5,0.5-1.2,0.7-2.1,0.7
		c-0.6,0-1-0.1-1.3-0.4C735.1,861.3,734.9,860.9,734.9,860.4z"/>
	<path class="st7" d="M727.2,833.8c0-1.5-0.4-2.7-1.2-3.6c-0.8-0.9-1.9-1.3-3.2-1.3c-1.4,0-2.5,0.4-3.2,1.3
		c-0.8,0.9-1.2,2.1-1.2,3.7c0,1,0.2,1.9,0.5,2.6c0.4,0.8,0.9,1.3,1.5,1.7c0.7,0.4,1.4,0.6,2.3,0.6c1.4,0,2.5-0.4,3.3-1.3
		C726.8,836.6,727.2,835.4,727.2,833.8z M724.9,836.7c-0.5,0.6-1.2,1-2.2,1c-1,0-1.7-0.3-2.2-1c-0.5-0.6-0.7-1.6-0.7-2.8
		c0-1.2,0.2-2.2,0.7-2.8c0.5-0.6,1.2-0.9,2.2-0.9c1,0,1.7,0.3,2.2,0.9c0.5,0.6,0.7,1.6,0.7,2.8C725.7,835.1,725.4,836,724.9,836.7z"
		/>
	<rect x="725" y="849.4" class="st7" width="1.5" height="13.6"/>
	<path class="st7" d="M745.8,877.6c-0.7,0-1.3,0.1-1.9,0.4c-0.5,0.3-1,0.7-1.2,1.2h-0.1c-0.5-1.1-1.4-1.6-2.9-1.6
		c-0.6,0-1.2,0.1-1.7,0.4c-0.5,0.3-0.9,0.6-1.2,1.1h-0.1l-0.2-1.3h-1.2v9.6h1.5v-5c0-1.2,0.2-2.1,0.6-2.7c0.4-0.5,1.1-0.8,2-0.8
		c0.7,0,1.2,0.2,1.5,0.6c0.3,0.4,0.5,1,0.5,1.7v6.2h1.4v-5.4c0-1.1,0.2-1.9,0.6-2.4c0.4-0.5,1.1-0.8,2-0.8c0.7,0,1.2,0.2,1.5,0.6
		c0.3,0.4,0.5,1,0.5,1.7v6.2h1.5v-6.3c0-1.2-0.3-2.1-0.8-2.7C747.7,877.9,746.9,877.6,745.8,877.6z"/>
	<path class="st7" d="M756.4,836.9c-1,0.4-2,0.7-3.1,0.7c-1,0-1.7-0.3-2.3-0.9c-0.5-0.6-0.8-1.4-0.9-2.6h6.6v-0.9
		c0-1.3-0.4-2.3-1-3.1c-0.7-0.8-1.7-1.2-2.9-1.2c-1.3,0-2.3,0.5-3.1,1.4c-0.8,0.9-1.1,2.1-1.1,3.7c0,1.5,0.4,2.7,1.2,3.6
		s1.9,1.3,3.4,1.3c0.6,0,1.2,0,1.7-0.1c0.5-0.1,0.9-0.3,1.5-0.5V836.9z M751.1,830.9c0.5-0.5,1.1-0.8,1.8-0.8c0.8,0,1.3,0.2,1.7,0.7
		c0.4,0.5,0.6,1.2,0.6,2.1h-5C750.3,832.1,750.6,831.4,751.1,830.9z"/>
	<path class="st7" d="M752,857.6c-0.8-0.3-1.4-0.5-1.7-0.7c-0.3-0.2-0.5-0.3-0.6-0.5c-0.1-0.2-0.2-0.4-0.2-0.7
		c0-0.4,0.2-0.7,0.5-0.9c0.4-0.2,0.9-0.3,1.6-0.3c0.8,0,1.6,0.2,2.6,0.6l0.5-1.2c-1-0.4-2-0.6-3-0.6c-1.1,0-2,0.2-2.6,0.7
		c-0.6,0.5-1,1.1-1,1.9c0,0.4,0.1,0.8,0.3,1.1c0.2,0.3,0.5,0.6,0.8,0.8c0.4,0.2,1,0.5,1.9,0.9c0.9,0.4,1.6,0.7,1.9,0.9
		c0.3,0.3,0.5,0.6,0.5,1c0,0.5-0.2,0.9-0.6,1.1c-0.4,0.2-1,0.4-1.7,0.4c-0.5,0-1-0.1-1.5-0.2c-0.5-0.1-1-0.3-1.5-0.6v1.4
		c0.7,0.4,1.7,0.6,3,0.6c1.2,0,2.1-0.2,2.8-0.7c0.7-0.5,1-1.2,1-2.1c0-0.6-0.2-1.2-0.6-1.6C753.9,858.4,753.1,858,752,857.6z"/>
	<path class="st7" d="M711.6,877.6c-0.7,0-1.3,0.1-1.8,0.4c-0.5,0.3-1,0.6-1.3,1.1h-0.1l-0.2-1.3h-1.2v9.6h1.5v-5
		c0-1.2,0.2-2.1,0.7-2.7c0.5-0.5,1.2-0.8,2.2-0.8c0.8,0,1.3,0.2,1.7,0.6c0.4,0.4,0.5,1,0.5,1.8v6.2h1.4v-6.3c0-1.2-0.3-2.1-0.9-2.7
		C713.6,877.9,712.7,877.6,711.6,877.6z"/>
	<path class="st7" d="M680.5,861.7l0.3,1.4h1.1v-6.5c0-1.1-0.3-1.9-0.8-2.4c-0.6-0.5-1.4-0.8-2.5-0.8c-0.6,0-1.1,0.1-1.7,0.2
		c-0.6,0.1-1.1,0.4-1.5,0.6l0.4,1.1c1-0.5,1.9-0.7,2.7-0.7c0.7,0,1.2,0.2,1.6,0.5c0.3,0.4,0.5,0.9,0.5,1.7v0.6l-1.6,0.1
		c-3.1,0.1-4.6,1.1-4.6,3c0,0.9,0.3,1.6,0.8,2.1c0.5,0.5,1.3,0.7,2.2,0.7c0.7,0,1.3-0.1,1.8-0.3
		C679.4,862.7,679.9,862.3,680.5,861.7L680.5,861.7z M680.4,859.2c0,0.9-0.3,1.6-0.8,2.1c-0.5,0.5-1.2,0.7-2.1,0.7
		c-0.6,0-1-0.1-1.3-0.4c-0.3-0.3-0.5-0.7-0.5-1.2c0-0.7,0.3-1.2,0.8-1.5c0.5-0.3,1.3-0.5,2.5-0.5l1.5-0.1V859.2z"/>
	<path class="st7" d="M661.5,853.3c-1.3,0-2.3,0.5-3.1,1.4c-0.8,0.9-1.1,2.1-1.1,3.7c0,1.5,0.4,2.7,1.2,3.6c0.8,0.9,1.9,1.3,3.3,1.3
		c0.6,0,1.2,0,1.7-0.1c0.5-0.1,0.9-0.3,1.5-0.5v-1.3c-1,0.4-2,0.6-3.1,0.6c-1,0-1.7-0.3-2.3-0.9c-0.5-0.6-0.8-1.4-0.8-2.6h6.6v-0.9
		c0-1.3-0.3-2.3-1-3.1C663.7,853.7,662.7,853.3,661.5,853.3z M658.9,857.3c0.1-0.9,0.3-1.6,0.8-2.1c0.5-0.5,1.1-0.8,1.8-0.8
		c0.8,0,1.3,0.2,1.7,0.7c0.4,0.5,0.6,1.2,0.6,2.1H658.9z"/>
	<path class="st7" d="M672.2,854.6c0.3,0,0.7,0,1.1,0.1l0.2-1.4c-0.3-0.1-0.7-0.1-1.1-0.1c-0.6,0-1.2,0.2-1.7,0.5
		c-0.5,0.3-0.9,0.8-1.3,1.4h-0.1l-0.2-1.8h-1.2v9.6h1.5v-5.1c0-0.9,0.3-1.7,0.8-2.4C670.7,854.9,671.4,854.6,672.2,854.6z"/>
	<rect x="665.8" y="873.8" class="st7" width="1.4" height="13.6"/>
	<path class="st7" d="M674,877.6c-1.3,0-2.3,0.5-3.1,1.4c-0.8,0.9-1.1,2.1-1.1,3.7c0,1.5,0.4,2.7,1.2,3.6c0.8,0.9,1.9,1.3,3.4,1.3
		c0.6,0,1.2,0,1.7-0.1c0.5-0.1,0.9-0.3,1.5-0.5v-1.3c-1,0.4-2,0.6-3.1,0.6c-1,0-1.7-0.3-2.3-0.9c-0.5-0.6-0.8-1.4-0.9-2.6h6.6V882
		c0-1.3-0.4-2.3-1-3.1C676.1,878,675.2,877.6,674,877.6z M671.3,881.7c0.1-0.9,0.4-1.6,0.8-2.1c0.5-0.5,1.1-0.7,1.8-0.7
		c0.8,0,1.3,0.2,1.7,0.7c0.4,0.5,0.6,1.2,0.6,2.1H671.3z"/>
	<path class="st7" d="M700.7,877.6c-1.3,0-2.3,0.5-3.1,1.4c-0.8,0.9-1.1,2.1-1.1,3.7c0,1.5,0.4,2.7,1.2,3.6c0.8,0.9,1.9,1.3,3.3,1.3
		c0.6,0,1.2,0,1.7-0.1c0.5-0.1,0.9-0.3,1.5-0.5v-1.3c-1,0.4-2,0.6-3.1,0.6c-1,0-1.7-0.3-2.3-0.9c-0.5-0.6-0.8-1.4-0.8-2.6h6.6V882
		c0-1.3-0.3-2.3-1-3.1C702.8,878,701.9,877.6,700.7,877.6z M698,881.7c0.1-0.9,0.4-1.6,0.8-2.1c0.5-0.5,1.1-0.7,1.8-0.7
		c0.8,0,1.3,0.2,1.7,0.7c0.4,0.5,0.6,1.2,0.6,2.1H698z"/>
	<path class="st7" d="M690.8,877.6c-0.7,0-1.3,0.1-1.9,0.4c-0.5,0.3-1,0.7-1.2,1.2h-0.1c-0.5-1.1-1.4-1.6-2.9-1.6
		c-0.6,0-1.2,0.1-1.7,0.4c-0.5,0.3-0.9,0.6-1.2,1.1h-0.1l-0.2-1.3h-1.2v9.6h1.5v-5c0-1.2,0.2-2.1,0.6-2.7c0.4-0.5,1.1-0.8,2-0.8
		c0.7,0,1.2,0.2,1.5,0.6c0.3,0.4,0.5,1,0.5,1.7v6.2h1.4v-5.4c0-1.1,0.2-1.9,0.6-2.4c0.4-0.5,1.1-0.8,2-0.8c0.7,0,1.2,0.2,1.5,0.6
		c0.3,0.4,0.5,1,0.5,1.7v6.2h1.5v-6.3c0-1.2-0.3-2.1-0.8-2.7C692.7,877.9,691.9,877.6,690.8,877.6z"/>
	<path class="st7" d="M698.7,838.8c0.3-0.1,0.5-0.1,0.7-0.2v-1.1c-0.1,0-0.3,0.1-0.6,0.1c-0.2,0-0.5,0.1-0.7,0.1
		c-0.5,0-0.9-0.2-1.1-0.5c-0.3-0.3-0.4-0.7-0.4-1.3v-5.6h2.8v-1.1h-2.8v-2.2h-0.8l-0.6,2l-1.4,0.6v0.7h1.4v5.7c0,2,0.9,2.9,2.8,2.9
		C698.2,838.8,698.4,838.8,698.7,838.8z"/>
</g>
</svg>
